<?xml version="1.0" encoding="UTF-8" standalone="no"?>
<!-- Created with Inkscape (http://www.inkscape.org/) -->

<svg
   xmlns:dc="http://purl.org/dc/elements/1.1/"
   xmlns:cc="http://creativecommons.org/ns#"
   xmlns:rdf="http://www.w3.org/1999/02/22-rdf-syntax-ns#"
   xmlns:svg="http://www.w3.org/2000/svg"
   xmlns="http://www.w3.org/2000/svg"
   xmlns:sodipodi="http://sodipodi.sourceforge.net/DTD/sodipodi-0.dtd"
   xmlns:inkscape="http://www.inkscape.org/namespaces/inkscape"
   width="20"
   height="20"
   viewBox="0 0 5.2916665 5.291667"
   version="1.1"
   id="svg8"
   inkscape:version="0.92.5 (2060ec1f9f, 2020-04-08)"
   sodipodi:docname="dust.svg"
   inkscape:export-filename="/home/victor/Projects/sokoadventure-2/data/img/fx/dust.png"
   inkscape:export-xdpi="96"
   inkscape:export-ydpi="96">
  <defs
     id="defs2" />
  <sodipodi:namedview
     id="base"
     pagecolor="#ffffff"
     bordercolor="#666666"
     borderopacity="1.0"
     inkscape:pageopacity="0.0"
     inkscape:pageshadow="2"
     inkscape:zoom="1"
     inkscape:cx="10.116773"
     inkscape:cy="15.790345"
     inkscape:document-units="px"
     inkscape:current-layer="layer1"
     showgrid="false"
     units="px"
     inkscape:pagecheckerboard="true"
     inkscape:showpageshadow="false"
     inkscape:window-width="1920"
     inkscape:window-height="1015"
     inkscape:window-x="0"
     inkscape:window-y="0"
     inkscape:window-maximized="1"
     inkscape:snap-global="false" />
  <metadata
     id="metadata5">
    <rdf:RDF>
      <cc:Work
         rdf:about="">
        <dc:format>image/svg+xml</dc:format>
        <dc:type
           rdf:resource="http://purl.org/dc/dcmitype/StillImage" />
        <dc:title></dc:title>
      </cc:Work>
    </rdf:RDF>
  </metadata>
  <g
     inkscape:label="Layer 1"
     inkscape:groupmode="layer"
     id="layer1"
     transform="translate(0,-291.70832)">
    <path
       style="fill:#ffffff;fill-opacity:1;stroke:none;stroke-width:1.0583334;stroke-linecap:round;stroke-linejoin:round;stroke-miterlimit:4;stroke-dasharray:none;stroke-opacity:1"
       d="m 2.6239011,291.70831 a 1.1093738,1.1196881 0 0 0 -1.1094171,1.11986 1.1093738,1.1196881 0 0 0 0.00215,0.0671 0.99491456,1.0029639 0 0 0 -0.4072168,-0.0888 0.99491456,1.0029639 0 0 0 -0.99476128,1.00304 0.99491456,1.0029639 0 0 0 0.44408981,0.83468 A 0.90246681,0.85597784 0 0 0 0,295.43502 a 0.90246681,0.85597784 0 0 0 0.90271351,0.85583 0.90246681,0.85597784 0 0 0 0.45835449,-0.11973 1.1622012,1.1585962 0 0 0 1.1131852,0.82886 1.1622012,1.1585962 0 0 0 1.0141397,-0.59389 1.1798103,1.154273 0 0 0 0.5353301,0.12687 1.1798103,1.154273 0 0 0 1.1799333,-1.15423 1.1798103,1.154273 0 0 0 -0.5872752,-0.99697 0.98170781,0.97702508 0 0 0 0.6752857,-0.92692 0.98170781,0.97702508 0 0 0 -0.9818424,-0.97687 0.98170781,0.97702508 0 0 0 -0.5883516,0.19612 1.1093738,1.1196881 0 0 0 -1.0975749,-0.96578 z"
       id="path812"
       inkscape:connector-curvature="0" />
  </g>
</svg>
