<?xml version="1.0" encoding="UTF-8" standalone="no"?>
<!-- Created with Inkscape (http://www.inkscape.org/) -->

<svg
   xmlns:dc="http://purl.org/dc/elements/1.1/"
   xmlns:cc="http://creativecommons.org/ns#"
   xmlns:rdf="http://www.w3.org/1999/02/22-rdf-syntax-ns#"
   xmlns:svg="http://www.w3.org/2000/svg"
   xmlns="http://www.w3.org/2000/svg"
   xmlns:sodipodi="http://sodipodi.sourceforge.net/DTD/sodipodi-0.dtd"
   xmlns:inkscape="http://www.inkscape.org/namespaces/inkscape"
   width="40"
   height="40"
   viewBox="0 0 10.583333 10.583334"
   version="1.1"
   id="svg8"
   inkscape:version="0.92.5 (2060ec1f9f, 2020-04-08)"
   sodipodi:docname="dust.svg"
   inkscape:export-filename="/home/victor/Projects/sokoadventure-2/data/img/fx/dust.png"
   inkscape:export-xdpi="96"
   inkscape:export-ydpi="96">
  <defs
     id="defs2" />
  <sodipodi:namedview
     id="base"
     pagecolor="#ffffff"
     bordercolor="#666666"
     borderopacity="1.0"
     inkscape:pageopacity="0.0"
     inkscape:pageshadow="2"
     inkscape:zoom="1"
     inkscape:cx="10.116773"
     inkscape:cy="15.790345"
     inkscape:document-units="px"
     inkscape:current-layer="layer1"
     showgrid="false"
     units="px"
     inkscape:pagecheckerboard="true"
     inkscape:showpageshadow="false"
     inkscape:window-width="1920"
     inkscape:window-height="1015"
     inkscape:window-x="0"
     inkscape:window-y="0"
     inkscape:window-maximized="1"
     inkscape:snap-global="false" />
  <metadata
     id="metadata5">
    <rdf:RDF>
      <cc:Work
         rdf:about="">
        <dc:format>image/svg+xml</dc:format>
        <dc:type
           rdf:resource="http://purl.org/dc/dcmitype/StillImage" />
        <dc:title></dc:title>
      </cc:Work>
    </rdf:RDF>
  </metadata>
  <g
     inkscape:label="Layer 1"
     inkscape:groupmode="layer"
     id="layer1"
     transform="translate(0,-286.41665)">
    <path
       style="fill:#ffffff;fill-opacity:1;stroke:none;stroke-width:1.0583334;stroke-linecap:round;stroke-linejoin:round;stroke-miterlimit:4;stroke-dasharray:none;stroke-opacity:1"
       d="m 5.2478024,286.41665 a 2.2187477,2.2393755 0 0 0 -2.2188342,2.23972 2.2187477,2.2393755 0 0 0 0.0043,0.13427 1.9898292,2.0059271 0 0 0 -0.8144338,-0.17762 1.9898292,2.0059271 0 0 0 -1.98952255,2.00609 1.9898292,2.0059271 0 0 0 0.88817965,1.66936 A 1.8049337,1.7119551 0 0 0 0,293.87007 a 1.8049337,1.7119551 0 0 0 1.8054271,1.71164 1.8049337,1.7119551 0 0 0 0.916709,-0.23946 2.3244024,2.3171917 0 0 0 2.2263705,1.65773 2.3244024,2.3171917 0 0 0 2.0282795,-1.18779 2.3596206,2.3085452 0 0 0 1.0706603,0.25374 2.3596206,2.3085452 0 0 0 2.3598666,-2.30845 2.3596206,2.3085452 0 0 0 -1.1745505,-1.99393 1.9634157,1.9540495 0 0 0 1.3505715,-1.85384 1.9634157,1.9540495 0 0 0 -1.9636848,-1.95374 1.9634157,1.9540495 0 0 0 -1.1767034,0.39223 2.2187477,2.2393755 0 0 0 -2.1951497,-1.93155 z"
       id="path812"
       inkscape:connector-curvature="0" />
  </g>
</svg>
