<?xml version="1.0" encoding="UTF-8" standalone="no"?>
<!-- Created with Inkscape (http://www.inkscape.org/) -->

<svg
   xmlns:dc="http://purl.org/dc/elements/1.1/"
   xmlns:cc="http://creativecommons.org/ns#"
   xmlns:rdf="http://www.w3.org/1999/02/22-rdf-syntax-ns#"
   xmlns:svg="http://www.w3.org/2000/svg"
   xmlns="http://www.w3.org/2000/svg"
   xmlns:sodipodi="http://sodipodi.sourceforge.net/DTD/sodipodi-0.dtd"
   xmlns:inkscape="http://www.inkscape.org/namespaces/inkscape"
   width="160"
   height="240"
   viewBox="0 0 42.333333 63.500003"
   version="1.1"
   id="svg8"
   inkscape:version="0.92.5 (2060ec1f9f, 2020-04-08)"
   sodipodi:docname="ball1.svg"
   inkscape:export-filename="/home/victor/Projects/sokoadventure-2/data/img/sprite/ball1.png"
   inkscape:export-xdpi="96"
   inkscape:export-ydpi="96">
  <defs
     id="defs2">
    <clipPath
       clipPathUnits="userSpaceOnUse"
       id="clipPath856">
      <rect
         ry="2.8222227"
         y="240.90833"
         x="7.4083333"
         height="27.516666"
         width="27.516666"
         id="rect858"
         style="fill:#b0803f;fill-opacity:1;stroke:none;stroke-width:1.0583334;stroke-linecap:round;stroke-linejoin:round;stroke-miterlimit:4;stroke-dasharray:none;stroke-opacity:1" />
    </clipPath>
    <clipPath
       clipPathUnits="userSpaceOnUse"
       id="clipPath861">
      <rect
         ry="1.3670139"
         y="279.48798"
         x="7.4083333"
         height="13.328384"
         width="27.516666"
         id="rect863"
         style="fill:#b0803f;fill-opacity:1;stroke:none;stroke-width:1.0583334;stroke-linecap:round;stroke-linejoin:round;stroke-miterlimit:4;stroke-dasharray:none;stroke-opacity:1" />
    </clipPath>
    <clipPath
       clipPathUnits="userSpaceOnUse"
       id="clipPath878">
      <rect
         style="fill:#b0803f;fill-opacity:1;stroke:none;stroke-width:1.0583334;stroke-linecap:round;stroke-linejoin:round;stroke-miterlimit:4;stroke-dasharray:none;stroke-opacity:1"
         id="rect880"
         width="27.516666"
         height="27.516666"
         x="7.4083333"
         y="240.90833"
         ry="2.4870834" />
    </clipPath>
    <clipPath
       clipPathUnits="userSpaceOnUse"
       id="clipPath884">
      <rect
         ry="2.4870834"
         y="240.90833"
         x="7.4083323"
         height="27.516666"
         width="27.516666"
         id="rect886"
         style="fill:#b0803f;fill-opacity:1;stroke:none;stroke-width:1.0583334;stroke-linecap:round;stroke-linejoin:round;stroke-miterlimit:4;stroke-dasharray:none;stroke-opacity:1" />
    </clipPath>
    <clipPath
       clipPathUnits="userSpaceOnUse"
       id="clipPath1843">
      <rect
         style="fill:#2d2822;fill-opacity:1;stroke:none;stroke-width:1.05833328;stroke-linecap:round;stroke-linejoin:round;stroke-miterlimit:4;stroke-dasharray:none;stroke-opacity:1"
         id="rect1845"
         width="42.333328"
         height="69.850006"
         x="211.66667"
         y="36.64999"
         ry="4.8732557"
         clip-path="none" />
    </clipPath>
    <clipPath
       clipPathUnits="userSpaceOnUse"
       id="clipPath1869">
      <rect
         clip-path="none"
         ry="4.8732557"
         y="31.35832"
         x="211.66667"
         height="69.850006"
         width="42.333328"
         id="rect1871"
         style="fill:#2d2822;fill-opacity:1;stroke:none;stroke-width:1.05833328;stroke-linecap:round;stroke-linejoin:round;stroke-miterlimit:4;stroke-dasharray:none;stroke-opacity:1" />
    </clipPath>
    <clipPath
       clipPathUnits="userSpaceOnUse"
       id="clipPath1895">
      <rect
         style="fill:#2d2822;fill-opacity:1;stroke:none;stroke-width:1.05833328;stroke-linecap:round;stroke-linejoin:round;stroke-miterlimit:4;stroke-dasharray:none;stroke-opacity:1"
         id="rect1897"
         width="42.333328"
         height="69.850006"
         x="211.66667"
         y="23.420815"
         ry="4.8732557"
         clip-path="none" />
    </clipPath>
    <clipPath
       clipPathUnits="userSpaceOnUse"
       id="clipPath1991">
      <path
         style="fill:#2d2822;fill-opacity:1;stroke:none;stroke-width:1.05833328;stroke-linecap:round;stroke-linejoin:round;stroke-miterlimit:4;stroke-dasharray:none;stroke-opacity:1"
         clip-path="none"
         d="m 216.53993,36.649989 h 32.58681 c 2.69979,0 4.87326,2.173471 4.87326,4.87326 V 106.5 h -37.46007 c -2.69979,0 -4.87326,-2.17348 -4.87326,-4.87326 V 41.523249 c 0,-2.699789 2.17347,-4.87326 4.87326,-4.87326 z"
         id="path1993"
         inkscape:connector-curvature="0"
         sodipodi:nodetypes="ssccssss" />
    </clipPath>
    <clipPath
       clipPathUnits="userSpaceOnUse"
       id="clipPath2019">
      <path
         sodipodi:nodetypes="ssccssss"
         inkscape:connector-curvature="0"
         id="path2021"
         d="m 216.53993,31.358323 h 32.58681 c 2.69979,0 4.87326,2.173471 4.87326,4.87326 v 64.976757 h -37.46007 c -2.69979,0 -4.87326,-2.173486 -4.87326,-4.873265 V 36.231583 c 0,-2.699789 2.17347,-4.87326 4.87326,-4.87326 z"
         clip-path="none"
         style="fill:#2d2822;fill-opacity:1;stroke:none;stroke-width:1.05833328;stroke-linecap:round;stroke-linejoin:round;stroke-miterlimit:4;stroke-dasharray:none;stroke-opacity:1" />
    </clipPath>
    <clipPath
       clipPathUnits="userSpaceOnUse"
       id="clipPath2045">
      <path
         style="fill:#2d2822;fill-opacity:1;stroke:none;stroke-width:1.05833328;stroke-linecap:round;stroke-linejoin:round;stroke-miterlimit:4;stroke-dasharray:none;stroke-opacity:1"
         clip-path="none"
         d="m 216.53993,23.420824 h 32.58681 c 2.69979,0 4.87326,2.173471 4.87326,4.87326 v 64.97676 h -37.46007 c -2.69978,0 -4.87325,-2.173489 -4.87325,-4.873268 V 28.294084 c 0,-2.699789 2.17347,-4.87326 4.87325,-4.87326 z"
         id="path2047"
         inkscape:connector-curvature="0"
         sodipodi:nodetypes="ssccssss" />
    </clipPath>
    <clipPath
       clipPathUnits="userSpaceOnUse"
       id="clipPath2088">
      <path
         sodipodi:nodetypes="ssccssss"
         inkscape:connector-curvature="0"
         id="path2090"
         d="m 249.12675,36.649989 h -32.58682 c -2.69979,0 -4.87326,2.173471 -4.87326,4.87326 V 106.5 h 37.46008 C 251.82653,106.5 254,104.32652 254,101.62674 V 41.523249 c 0,-2.699789 -2.17347,-4.87326 -4.87325,-4.87326 z"
         clip-path="none"
         style="fill:#2d2822;fill-opacity:1;stroke:none;stroke-width:1.05833328;stroke-linecap:round;stroke-linejoin:round;stroke-miterlimit:4;stroke-dasharray:none;stroke-opacity:1" />
    </clipPath>
    <clipPath
       clipPathUnits="userSpaceOnUse"
       id="clipPath2116">
      <path
         style="fill:#2d2822;fill-opacity:1;stroke:none;stroke-width:1.05833328;stroke-linecap:round;stroke-linejoin:round;stroke-miterlimit:4;stroke-dasharray:none;stroke-opacity:1"
         clip-path="none"
         d="m 249.12674,31.358319 h -32.58681 c -2.69979,0 -4.87326,2.17347 -4.87326,4.87326 v 64.976761 h 37.46007 c 2.69979,0 4.87326,-2.17349 4.87326,-4.87327 V 36.231579 c 0,-2.69979 -2.17347,-4.87326 -4.87326,-4.87326 z"
         id="path2118"
         inkscape:connector-curvature="0"
         sodipodi:nodetypes="ssccssss" />
    </clipPath>
    <clipPath
       clipPathUnits="userSpaceOnUse"
       id="clipPath2144">
      <path
         sodipodi:nodetypes="ssccssss"
         inkscape:connector-curvature="0"
         id="path2146"
         d="m 249.12675,23.420819 h -32.58681 c -2.69979,0 -4.87326,2.17347 -4.87326,4.87326 v 64.976762 h 37.46007 c 2.69978,0 4.87325,-2.173491 4.87325,-4.87326 V 28.294079 c 0,-2.69979 -2.17347,-4.87326 -4.87325,-4.87326 z"
         clip-path="none"
         style="fill:#2d2822;fill-opacity:1;stroke:none;stroke-width:1.05833328;stroke-linecap:round;stroke-linejoin:round;stroke-miterlimit:4;stroke-dasharray:none;stroke-opacity:1" />
    </clipPath>
    <clipPath
       clipPathUnits="userSpaceOnUse"
       id="clipPath2184">
      <path
         sodipodi:nodetypes="ssccccs"
         inkscape:connector-curvature="0"
         id="path2186"
         d="m 216.53993,36.649989 h 32.58681 c 2.69979,0 4.87326,2.17347 4.87326,4.87326 V 106.5 H 211.66667 V 41.523249 c 0,-2.69979 2.17347,-4.87326 4.87326,-4.87326 z"
         clip-path="none"
         style="fill:#2d2822;fill-opacity:1;stroke:none;stroke-width:1.05833328;stroke-linecap:round;stroke-linejoin:round;stroke-miterlimit:4;stroke-dasharray:none;stroke-opacity:1" />
    </clipPath>
    <clipPath
       clipPathUnits="userSpaceOnUse"
       id="clipPath2212">
      <path
         style="fill:#2d2822;fill-opacity:1;stroke:none;stroke-width:1.05833328;stroke-linecap:round;stroke-linejoin:round;stroke-miterlimit:4;stroke-dasharray:none;stroke-opacity:1"
         clip-path="none"
         d="m 216.53993,31.358329 h 32.58681 c 2.69979,0 4.87326,2.17347 4.87326,4.87326 V 101.20834 H 211.66667 V 36.231589 c 0,-2.69979 2.17347,-4.87326 4.87326,-4.87326 z"
         id="path2214"
         inkscape:connector-curvature="0"
         sodipodi:nodetypes="ssccccs" />
    </clipPath>
    <clipPath
       clipPathUnits="userSpaceOnUse"
       id="clipPath2238">
      <path
         sodipodi:nodetypes="ssccccs"
         inkscape:connector-curvature="0"
         id="path2240"
         d="m 216.53993,23.420839 h 32.58681 c 2.69979,0 4.87326,2.17347 4.87326,4.87326 V 93.270851 H 211.66667 V 28.294099 c 0,-2.69979 2.17347,-4.87326 4.87326,-4.87326 z"
         clip-path="none"
         style="fill:#2d2822;fill-opacity:1;stroke:none;stroke-width:1.05833328;stroke-linecap:round;stroke-linejoin:round;stroke-miterlimit:4;stroke-dasharray:none;stroke-opacity:1" />
    </clipPath>
    <clipPath
       clipPathUnits="userSpaceOnUse"
       id="clipPath1616">
      <path
         inkscape:transform-center-y="-1.4204942"
         d="M 80.000001,25.577598 96.523457,59.05778 133.47103,64.426579 106.73552,90.487264 113.04691,127.28555 80,109.91175 46.953083,127.28554 53.264484,90.487265 26.528968,64.426576 63.476542,59.057781 Z"
         inkscape:randomized="0"
         inkscape:rounded="0"
         inkscape:flatsided="false"
         sodipodi:arg2="-0.9424778"
         sodipodi:arg1="-1.5707963"
         sodipodi:r2="28.111385"
         sodipodi:r1="56.22277"
         sodipodi:cy="81.800369"
         sodipodi:cx="80"
         sodipodi:sides="5"
         id="path1618"
         style="fill:#fff16d;fill-opacity:1;stroke:none;stroke-width:1.0583334;stroke-linecap:butt;stroke-linejoin:round;stroke-miterlimit:4;stroke-dasharray:none;stroke-opacity:1"
         sodipodi:type="star" />
    </clipPath>
  </defs>
  <sodipodi:namedview
     id="base"
     pagecolor="#ffffff"
     bordercolor="#666666"
     borderopacity="1.0"
     inkscape:pageopacity="0.0"
     inkscape:pageshadow="2"
     inkscape:zoom="1"
     inkscape:cx="74.92344"
     inkscape:cy="43.313439"
     inkscape:document-units="px"
     inkscape:current-layer="layer1"
     showgrid="false"
     units="px"
     inkscape:pagecheckerboard="true"
     inkscape:showpageshadow="false"
     inkscape:window-width="1920"
     inkscape:window-height="1015"
     inkscape:window-x="0"
     inkscape:window-y="0"
     inkscape:window-maximized="1"
     inkscape:snap-global="false" />
  <metadata
     id="metadata5">
    <rdf:RDF>
      <cc:Work
         rdf:about="">
        <dc:format>image/svg+xml</dc:format>
        <dc:type
           rdf:resource="http://purl.org/dc/dcmitype/StillImage" />
        <dc:title></dc:title>
      </cc:Work>
    </rdf:RDF>
  </metadata>
  <g
     inkscape:label="Layer 1"
     inkscape:groupmode="layer"
     id="layer1"
     transform="translate(0,-233.49999)">
    <rect
       ry="5.8840284"
       y="255.19583"
       x="0.5291667"
       height="41.274998"
       width="41.275002"
       id="rect814"
       style="fill:#fff16d;fill-opacity:1;stroke:#978c24;stroke-width:1.0583334;stroke-linecap:round;stroke-linejoin:round;stroke-miterlimit:4;stroke-dasharray:none;stroke-opacity:1" />
    <rect
       style="fill:#fff16d;fill-opacity:1;stroke:#978c24;stroke-width:1.0583334;stroke-linecap:round;stroke-linejoin:round;stroke-miterlimit:4;stroke-dasharray:none;stroke-opacity:1"
       id="rect812"
       width="41.275002"
       height="41.274998"
       x="0.5291667"
       y="234.02917"
       ry="5.8840284" />
    <path
       sodipodi:type="star"
       style="fill:#ebdf65;fill-opacity:1;stroke:none;stroke-width:1.0583334;stroke-linecap:butt;stroke-linejoin:round;stroke-miterlimit:4;stroke-dasharray:none;stroke-opacity:1"
       id="path1603"
       sodipodi:sides="5"
       sodipodi:cx="21.166668"
       sodipodi:cy="255.14301"
       sodipodi:r1="14.875608"
       sodipodi:r2="7.4378042"
       sodipodi:arg1="-1.5707963"
       sodipodi:arg2="-0.9424778"
       inkscape:flatsided="false"
       inkscape:rounded="0"
       inkscape:randomized="0"
       d="m 21.166668,240.2674 4.371832,8.8583 9.775712,1.42049 -7.073772,6.89522 1.669891,9.73622 -8.743663,-4.59682 -8.743664,4.59682 1.669892,-9.73622 -7.0737723,-6.89522 9.7757123,-1.42049 z"
       inkscape:transform-center-y="-1.4204942" />
    <path
       style="fill:#000000;fill-opacity:0.09803922;stroke:none;stroke-width:4;stroke-linecap:butt;stroke-linejoin:round;stroke-miterlimit:4;stroke-dasharray:none;stroke-opacity:1"
       d="M 80 20.732422 L 20.814453 63.4375 L 29.248047 71.691406 L 66.210938 66.308594 L 80 37.419922 L 93.816406 66.308594 L 130.7793 71.691406 L 139.21289 63.4375 L 80 20.732422 z "
       transform="matrix(0.26458334,0,0,0.26458334,0,233.49999)"
       id="path1607"
       clip-path="url(#clipPath1616)" />
    <path
       inkscape:transform-center-y="-1.4204942"
       d="m 21.166668,240.2674 4.371832,8.8583 9.775712,1.42049 -7.073772,6.89522 1.669891,9.73622 -8.743663,-4.59682 -8.743664,4.59682 1.669892,-9.73622 -7.0737723,-6.89522 9.7757123,-1.42049 z"
       inkscape:randomized="0"
       inkscape:rounded="0"
       inkscape:flatsided="false"
       sodipodi:arg2="-0.9424778"
       sodipodi:arg1="-1.5707963"
       sodipodi:r2="7.4378042"
       sodipodi:r1="14.875608"
       sodipodi:cy="255.14301"
       sodipodi:cx="21.166668"
       sodipodi:sides="5"
       id="path1612"
       style="fill:none;fill-opacity:1;stroke:#978c24;stroke-width:1.0583334;stroke-linecap:butt;stroke-linejoin:round;stroke-miterlimit:4;stroke-dasharray:none;stroke-opacity:1"
       sodipodi:type="star" />
    <path
       inkscape:transform-center-y="-0.7101991"
       d="m 21.166668,240.2674 4.371832,8.8583 9.775712,1.42049 -7.073772,6.89522 1.669891,9.73622 -8.743663,-4.59682 -8.743664,4.59682 1.669892,-9.73622 -7.0737723,-6.89522 9.7757123,-1.42049 z"
       inkscape:randomized="0"
       inkscape:rounded="0"
       inkscape:flatsided="false"
       sodipodi:arg2="-0.9424778"
       sodipodi:arg1="-1.5707963"
       sodipodi:r2="7.4378042"
       sodipodi:r1="14.875608"
       sodipodi:cy="255.14301"
       sodipodi:cx="21.166668"
       sodipodi:sides="5"
       id="path1620"
       style="fill:#ebdf65;fill-opacity:1;stroke:none;stroke-width:1.49676275;stroke-linecap:butt;stroke-linejoin:round;stroke-miterlimit:4;stroke-dasharray:none;stroke-opacity:1"
       sodipodi:type="star"
       transform="matrix(1,0,0,0.49996437,0,158.7337)" />
    <path
       style="fill:#000000;fill-opacity:0.2;stroke:none;stroke-width:1.0583334;stroke-linecap:round;stroke-linejoin:round;stroke-miterlimit:4;stroke-dasharray:none;stroke-opacity:1"
       d="M 6.2155566,275.83337 H 36.117777 c 2.857102,0 5.157224,0.18345 5.157224,3.04056 v 11.91056 c 0,2.85711 -2.300122,5.15723 -5.157224,5.15723 H 6.2155566 c -2.8571016,0 -5.1572232,-2.30012 -5.1572232,-5.15723 v -11.91056 c 0,-2.85711 2.3001216,-3.04056 5.1572232,-3.04056 z"
       id="rect816"
       inkscape:connector-curvature="0"
       sodipodi:nodetypes="sssssssss" />
    <path
       style="fill:#000000;fill-opacity:0.09803922;stroke:none;stroke-width:4;stroke-linecap:butt;stroke-linejoin:round;stroke-miterlimit:4;stroke-dasharray:none;stroke-opacity:1"
       d="M 80 207.29492 L 48.613281 215.18555 L 46.830078 221.80273 L 80 213.91211 L 113.16992 221.80273 L 111.38672 215.18555 L 80 207.29492 z "
       transform="matrix(0.26458334,0,0,0.26458334,0,233.49999)"
       id="path1626" />
    <path
       style="fill:#000000;fill-opacity:0.09803922;stroke:none;stroke-width:1.0583334;stroke-linecap:butt;stroke-linejoin:round;stroke-miterlimit:4;stroke-dasharray:none;stroke-opacity:1"
       d="m 9.8084839,283.79481 5.0001771,2.28893 0.0036,1.37373 -1.186881,-0.1899 -5.8394508,-3.13336 z"
       id="path1631"
       inkscape:connector-curvature="0"
       sodipodi:nodetypes="cccccc" />
    <path
       sodipodi:nodetypes="cccccc"
       inkscape:connector-curvature="0"
       id="path1635"
       d="m 32.507215,283.79481 -5.000177,2.28893 -0.0036,1.37373 1.186881,-0.1899 5.839451,-3.13336 z"
       style="fill:#000000;fill-opacity:0.09803922;stroke:none;stroke-width:1.0583334;stroke-linecap:butt;stroke-linejoin:round;stroke-miterlimit:4;stroke-dasharray:none;stroke-opacity:1" />
    <path
       sodipodi:type="star"
       style="fill:none;fill-opacity:1;stroke:#978c24;stroke-width:1.49676275;stroke-linecap:butt;stroke-linejoin:round;stroke-miterlimit:4;stroke-dasharray:none;stroke-opacity:1"
       id="path1624"
       sodipodi:sides="5"
       sodipodi:cx="21.166668"
       sodipodi:cy="255.14301"
       sodipodi:r1="14.875608"
       sodipodi:r2="7.4378042"
       sodipodi:arg1="-1.5707963"
       sodipodi:arg2="-0.9424778"
       inkscape:flatsided="false"
       inkscape:rounded="0"
       inkscape:randomized="0"
       d="m 21.166668,240.2674 4.371832,8.8583 9.775712,1.42049 -7.073772,6.89522 1.669891,9.73622 -8.743663,-4.59682 -8.743664,4.59682 1.669892,-9.73622 -7.0737723,-6.89522 9.7757123,-1.42049 z"
       inkscape:transform-center-y="-0.7101991"
       transform="matrix(1,0,0,0.49996437,0,158.7337)" />
  </g>
</svg>
