<?xml version="1.0" encoding="UTF-8" standalone="no"?>
<!-- Created with Inkscape (http://www.inkscape.org/) -->

<svg
   xmlns:dc="http://purl.org/dc/elements/1.1/"
   xmlns:cc="http://creativecommons.org/ns#"
   xmlns:rdf="http://www.w3.org/1999/02/22-rdf-syntax-ns#"
   xmlns:svg="http://www.w3.org/2000/svg"
   xmlns="http://www.w3.org/2000/svg"
   xmlns:sodipodi="http://sodipodi.sourceforge.net/DTD/sodipodi-0.dtd"
   xmlns:inkscape="http://www.inkscape.org/namespaces/inkscape"
   width="160"
   height="120"
   viewBox="0 0 42.333333 31.750001"
   version="1.1"
   id="svg8"
   inkscape:version="0.92.5 (2060ec1f9f, 2020-04-08)"
   sodipodi:docname="ball1.svg"
   inkscape:export-filename="/home/victor/Projects/sokoadventure-2/data/img/sprite/ball1.png"
   inkscape:export-xdpi="96"
   inkscape:export-ydpi="96">
  <defs
     id="defs2">
    <clipPath
       clipPathUnits="userSpaceOnUse"
       id="clipPath856">
      <rect
         ry="2.8222227"
         y="240.90833"
         x="7.4083333"
         height="27.516666"
         width="27.516666"
         id="rect858"
         style="fill:#b0803f;fill-opacity:1;stroke:none;stroke-width:1.0583334;stroke-linecap:round;stroke-linejoin:round;stroke-miterlimit:4;stroke-dasharray:none;stroke-opacity:1" />
    </clipPath>
    <clipPath
       clipPathUnits="userSpaceOnUse"
       id="clipPath861">
      <rect
         ry="1.3670139"
         y="279.48798"
         x="7.4083333"
         height="13.328384"
         width="27.516666"
         id="rect863"
         style="fill:#b0803f;fill-opacity:1;stroke:none;stroke-width:1.0583334;stroke-linecap:round;stroke-linejoin:round;stroke-miterlimit:4;stroke-dasharray:none;stroke-opacity:1" />
    </clipPath>
    <clipPath
       clipPathUnits="userSpaceOnUse"
       id="clipPath878">
      <rect
         style="fill:#b0803f;fill-opacity:1;stroke:none;stroke-width:1.0583334;stroke-linecap:round;stroke-linejoin:round;stroke-miterlimit:4;stroke-dasharray:none;stroke-opacity:1"
         id="rect880"
         width="27.516666"
         height="27.516666"
         x="7.4083333"
         y="240.90833"
         ry="2.4870834" />
    </clipPath>
    <clipPath
       clipPathUnits="userSpaceOnUse"
       id="clipPath884">
      <rect
         ry="2.4870834"
         y="240.90833"
         x="7.4083323"
         height="27.516666"
         width="27.516666"
         id="rect886"
         style="fill:#b0803f;fill-opacity:1;stroke:none;stroke-width:1.0583334;stroke-linecap:round;stroke-linejoin:round;stroke-miterlimit:4;stroke-dasharray:none;stroke-opacity:1" />
    </clipPath>
    <clipPath
       clipPathUnits="userSpaceOnUse"
       id="clipPath1843">
      <rect
         style="fill:#2d2822;fill-opacity:1;stroke:none;stroke-width:1.05833328;stroke-linecap:round;stroke-linejoin:round;stroke-miterlimit:4;stroke-dasharray:none;stroke-opacity:1"
         id="rect1845"
         width="42.333328"
         height="69.850006"
         x="211.66667"
         y="36.64999"
         ry="4.8732557"
         clip-path="none" />
    </clipPath>
    <clipPath
       clipPathUnits="userSpaceOnUse"
       id="clipPath1869">
      <rect
         clip-path="none"
         ry="4.8732557"
         y="31.35832"
         x="211.66667"
         height="69.850006"
         width="42.333328"
         id="rect1871"
         style="fill:#2d2822;fill-opacity:1;stroke:none;stroke-width:1.05833328;stroke-linecap:round;stroke-linejoin:round;stroke-miterlimit:4;stroke-dasharray:none;stroke-opacity:1" />
    </clipPath>
    <clipPath
       clipPathUnits="userSpaceOnUse"
       id="clipPath1895">
      <rect
         style="fill:#2d2822;fill-opacity:1;stroke:none;stroke-width:1.05833328;stroke-linecap:round;stroke-linejoin:round;stroke-miterlimit:4;stroke-dasharray:none;stroke-opacity:1"
         id="rect1897"
         width="42.333328"
         height="69.850006"
         x="211.66667"
         y="23.420815"
         ry="4.8732557"
         clip-path="none" />
    </clipPath>
    <clipPath
       clipPathUnits="userSpaceOnUse"
       id="clipPath1991">
      <path
         style="fill:#2d2822;fill-opacity:1;stroke:none;stroke-width:1.05833328;stroke-linecap:round;stroke-linejoin:round;stroke-miterlimit:4;stroke-dasharray:none;stroke-opacity:1"
         clip-path="none"
         d="m 216.53993,36.649989 h 32.58681 c 2.69979,0 4.87326,2.173471 4.87326,4.87326 V 106.5 h -37.46007 c -2.69979,0 -4.87326,-2.17348 -4.87326,-4.87326 V 41.523249 c 0,-2.699789 2.17347,-4.87326 4.87326,-4.87326 z"
         id="path1993"
         inkscape:connector-curvature="0"
         sodipodi:nodetypes="ssccssss" />
    </clipPath>
    <clipPath
       clipPathUnits="userSpaceOnUse"
       id="clipPath2019">
      <path
         sodipodi:nodetypes="ssccssss"
         inkscape:connector-curvature="0"
         id="path2021"
         d="m 216.53993,31.358323 h 32.58681 c 2.69979,0 4.87326,2.173471 4.87326,4.87326 v 64.976757 h -37.46007 c -2.69979,0 -4.87326,-2.173486 -4.87326,-4.873265 V 36.231583 c 0,-2.699789 2.17347,-4.87326 4.87326,-4.87326 z"
         clip-path="none"
         style="fill:#2d2822;fill-opacity:1;stroke:none;stroke-width:1.05833328;stroke-linecap:round;stroke-linejoin:round;stroke-miterlimit:4;stroke-dasharray:none;stroke-opacity:1" />
    </clipPath>
    <clipPath
       clipPathUnits="userSpaceOnUse"
       id="clipPath2045">
      <path
         style="fill:#2d2822;fill-opacity:1;stroke:none;stroke-width:1.05833328;stroke-linecap:round;stroke-linejoin:round;stroke-miterlimit:4;stroke-dasharray:none;stroke-opacity:1"
         clip-path="none"
         d="m 216.53993,23.420824 h 32.58681 c 2.69979,0 4.87326,2.173471 4.87326,4.87326 v 64.97676 h -37.46007 c -2.69978,0 -4.87325,-2.173489 -4.87325,-4.873268 V 28.294084 c 0,-2.699789 2.17347,-4.87326 4.87325,-4.87326 z"
         id="path2047"
         inkscape:connector-curvature="0"
         sodipodi:nodetypes="ssccssss" />
    </clipPath>
    <clipPath
       clipPathUnits="userSpaceOnUse"
       id="clipPath2088">
      <path
         sodipodi:nodetypes="ssccssss"
         inkscape:connector-curvature="0"
         id="path2090"
         d="m 249.12675,36.649989 h -32.58682 c -2.69979,0 -4.87326,2.173471 -4.87326,4.87326 V 106.5 h 37.46008 C 251.82653,106.5 254,104.32652 254,101.62674 V 41.523249 c 0,-2.699789 -2.17347,-4.87326 -4.87325,-4.87326 z"
         clip-path="none"
         style="fill:#2d2822;fill-opacity:1;stroke:none;stroke-width:1.05833328;stroke-linecap:round;stroke-linejoin:round;stroke-miterlimit:4;stroke-dasharray:none;stroke-opacity:1" />
    </clipPath>
    <clipPath
       clipPathUnits="userSpaceOnUse"
       id="clipPath2116">
      <path
         style="fill:#2d2822;fill-opacity:1;stroke:none;stroke-width:1.05833328;stroke-linecap:round;stroke-linejoin:round;stroke-miterlimit:4;stroke-dasharray:none;stroke-opacity:1"
         clip-path="none"
         d="m 249.12674,31.358319 h -32.58681 c -2.69979,0 -4.87326,2.17347 -4.87326,4.87326 v 64.976761 h 37.46007 c 2.69979,0 4.87326,-2.17349 4.87326,-4.87327 V 36.231579 c 0,-2.69979 -2.17347,-4.87326 -4.87326,-4.87326 z"
         id="path2118"
         inkscape:connector-curvature="0"
         sodipodi:nodetypes="ssccssss" />
    </clipPath>
    <clipPath
       clipPathUnits="userSpaceOnUse"
       id="clipPath2144">
      <path
         sodipodi:nodetypes="ssccssss"
         inkscape:connector-curvature="0"
         id="path2146"
         d="m 249.12675,23.420819 h -32.58681 c -2.69979,0 -4.87326,2.17347 -4.87326,4.87326 v 64.976762 h 37.46007 c 2.69978,0 4.87325,-2.173491 4.87325,-4.87326 V 28.294079 c 0,-2.69979 -2.17347,-4.87326 -4.87325,-4.87326 z"
         clip-path="none"
         style="fill:#2d2822;fill-opacity:1;stroke:none;stroke-width:1.05833328;stroke-linecap:round;stroke-linejoin:round;stroke-miterlimit:4;stroke-dasharray:none;stroke-opacity:1" />
    </clipPath>
    <clipPath
       clipPathUnits="userSpaceOnUse"
       id="clipPath2184">
      <path
         sodipodi:nodetypes="ssccccs"
         inkscape:connector-curvature="0"
         id="path2186"
         d="m 216.53993,36.649989 h 32.58681 c 2.69979,0 4.87326,2.17347 4.87326,4.87326 V 106.5 H 211.66667 V 41.523249 c 0,-2.69979 2.17347,-4.87326 4.87326,-4.87326 z"
         clip-path="none"
         style="fill:#2d2822;fill-opacity:1;stroke:none;stroke-width:1.05833328;stroke-linecap:round;stroke-linejoin:round;stroke-miterlimit:4;stroke-dasharray:none;stroke-opacity:1" />
    </clipPath>
    <clipPath
       clipPathUnits="userSpaceOnUse"
       id="clipPath2212">
      <path
         style="fill:#2d2822;fill-opacity:1;stroke:none;stroke-width:1.05833328;stroke-linecap:round;stroke-linejoin:round;stroke-miterlimit:4;stroke-dasharray:none;stroke-opacity:1"
         clip-path="none"
         d="m 216.53993,31.358329 h 32.58681 c 2.69979,0 4.87326,2.17347 4.87326,4.87326 V 101.20834 H 211.66667 V 36.231589 c 0,-2.69979 2.17347,-4.87326 4.87326,-4.87326 z"
         id="path2214"
         inkscape:connector-curvature="0"
         sodipodi:nodetypes="ssccccs" />
    </clipPath>
    <clipPath
       clipPathUnits="userSpaceOnUse"
       id="clipPath2238">
      <path
         sodipodi:nodetypes="ssccccs"
         inkscape:connector-curvature="0"
         id="path2240"
         d="m 216.53993,23.420839 h 32.58681 c 2.69979,0 4.87326,2.17347 4.87326,4.87326 V 93.270851 H 211.66667 V 28.294099 c 0,-2.69979 2.17347,-4.87326 4.87326,-4.87326 z"
         clip-path="none"
         style="fill:#2d2822;fill-opacity:1;stroke:none;stroke-width:1.05833328;stroke-linecap:round;stroke-linejoin:round;stroke-miterlimit:4;stroke-dasharray:none;stroke-opacity:1" />
    </clipPath>
    <clipPath
       clipPathUnits="userSpaceOnUse"
       id="clipPath1616">
      <path
         inkscape:transform-center-y="-1.4204942"
         d="m 80.000002,25.577599 16.523456,33.480182 36.947572,5.368798 -26.73551,26.060686 6.31139,36.798285 L 80,109.91175 46.953083,127.28555 53.264484,90.487265 26.528968,64.426576 63.476542,59.057781 Z"
         inkscape:randomized="0"
         inkscape:rounded="0"
         inkscape:flatsided="false"
         sodipodi:arg2="-0.9424778"
         sodipodi:arg1="-1.5707963"
         sodipodi:r2="28.111385"
         sodipodi:r1="56.222771"
         sodipodi:cy="81.800369"
         sodipodi:cx="80"
         sodipodi:sides="5"
         id="path1618"
         style="fill:#fff16d;fill-opacity:1;stroke:none;stroke-width:1.0583334;stroke-linecap:butt;stroke-linejoin:round;stroke-miterlimit:4;stroke-dasharray:none;stroke-opacity:1"
         sodipodi:type="star" />
    </clipPath>
  </defs>
  <sodipodi:namedview
     id="base"
     pagecolor="#ffffff"
     bordercolor="#666666"
     borderopacity="1.0"
     inkscape:pageopacity="0.0"
     inkscape:pageshadow="2"
     inkscape:zoom="1"
     inkscape:cx="29.593778"
     inkscape:cy="86.571337"
     inkscape:document-units="px"
     inkscape:current-layer="layer1"
     showgrid="false"
     units="px"
     inkscape:pagecheckerboard="true"
     inkscape:showpageshadow="false"
     inkscape:window-width="1920"
     inkscape:window-height="1015"
     inkscape:window-x="0"
     inkscape:window-y="0"
     inkscape:window-maximized="1"
     inkscape:snap-global="false" />
  <metadata
     id="metadata5">
    <rdf:RDF>
      <cc:Work
         rdf:about="">
        <dc:format>image/svg+xml</dc:format>
        <dc:type
           rdf:resource="http://purl.org/dc/dcmitype/StillImage" />
        <dc:title></dc:title>
      </cc:Work>
    </rdf:RDF>
  </metadata>
  <g
     inkscape:label="Layer 1"
     inkscape:groupmode="layer"
     id="layer1"
     transform="translate(0,-265.24999)">
    <rect
       ry="2.9420147"
       y="276.0979"
       x="0.26458338"
       height="20.637503"
       width="20.637501"
       id="rect814"
       style="fill:#fff16d;fill-opacity:1;stroke:#978c24;stroke-width:0.52916676;stroke-linecap:round;stroke-linejoin:round;stroke-miterlimit:4;stroke-dasharray:none;stroke-opacity:1"
       rx="2.9420142" />
    <rect
       style="fill:#fff16d;fill-opacity:1;stroke:#978c24;stroke-width:0.52916676;stroke-linecap:round;stroke-linejoin:round;stroke-miterlimit:4;stroke-dasharray:none;stroke-opacity:1"
       id="rect812"
       width="20.637501"
       height="20.637503"
       x="0.26458338"
       y="265.51459"
       ry="2.9420147"
       rx="2.9420142" />
    <path
       sodipodi:type="star"
       style="fill:#ebdf65;fill-opacity:1;stroke:none;stroke-width:0.5291667;stroke-linecap:butt;stroke-linejoin:round;stroke-miterlimit:4;stroke-dasharray:none;stroke-opacity:1"
       id="path1603"
       sodipodi:sides="5"
       sodipodi:cx="10.583334"
       sodipodi:cy="276.07147"
       sodipodi:r1="7.4378047"
       sodipodi:r2="3.7189023"
       sodipodi:arg1="-1.5707963"
       sodipodi:arg2="-0.9424778"
       inkscape:flatsided="false"
       inkscape:rounded="0"
       inkscape:randomized="0"
       d="m 10.583334,268.63367 2.185916,4.42915 4.887857,0.71024 -3.536887,3.44762 0.834946,4.8681 -4.371832,-2.29841 -4.3718321,2.29841 0.8349458,-4.8681 -3.5368863,-3.44762 4.8878566,-0.71024 z"
       inkscape:transform-center-y="-0.71027318" />
    <path
       style="fill:#000000;fill-opacity:0.09803922;stroke:none;stroke-width:4;stroke-linecap:butt;stroke-linejoin:round;stroke-miterlimit:4;stroke-dasharray:none;stroke-opacity:1"
       d="M 80,20.732422 20.814453,63.4375 29.248047,71.691406 66.210938,66.308594 80,37.419922 93.816406,66.308594 130.7793,71.691406 139.21289,63.4375 Z"
       transform="matrix(0.13229168,0,0,0.1322917,1.9003014e-8,265.24999)"
       id="path1607"
       clip-path="url(#clipPath1616)"
       inkscape:connector-curvature="0" />
    <path
       inkscape:transform-center-y="-0.71027318"
       d="m 10.583334,268.63367 2.185916,4.42915 4.887857,0.71024 -3.536887,3.44762 0.834946,4.8681 -4.371832,-2.29841 -4.3718321,2.29841 0.8349458,-4.8681 -3.5368863,-3.44762 4.8878566,-0.71024 z"
       inkscape:randomized="0"
       inkscape:rounded="0"
       inkscape:flatsided="false"
       sodipodi:arg2="-0.9424778"
       sodipodi:arg1="-1.5707963"
       sodipodi:r2="3.7189023"
       sodipodi:r1="7.4378047"
       sodipodi:cy="276.07147"
       sodipodi:cx="10.583334"
       sodipodi:sides="5"
       id="path1612"
       style="fill:none;fill-opacity:1;stroke:#978c24;stroke-width:0.5291667;stroke-linecap:butt;stroke-linejoin:round;stroke-miterlimit:4;stroke-dasharray:none;stroke-opacity:1"
       sodipodi:type="star" />
    <path
       inkscape:transform-center-y="-0.35509647"
       d="m 21.166668,240.2674 4.371832,8.8583 9.775712,1.42049 -7.073772,6.89522 1.669891,9.73622 -8.743663,-4.59682 -8.743664,4.59682 1.669892,-9.73622 -7.0737723,-6.89522 9.7757123,-1.42049 z"
       inkscape:randomized="0"
       inkscape:rounded="0"
       inkscape:flatsided="false"
       sodipodi:arg2="-0.9424778"
       sodipodi:arg1="-1.5707963"
       sodipodi:r2="7.4378042"
       sodipodi:r1="14.875608"
       sodipodi:cy="255.14301"
       sodipodi:cx="21.166668"
       sodipodi:sides="5"
       id="path1620"
       style="fill:#ebdf65;fill-opacity:1;stroke:none;stroke-width:1.49676275;stroke-linecap:butt;stroke-linejoin:round;stroke-miterlimit:4;stroke-dasharray:none;stroke-opacity:1"
       sodipodi:type="star"
       transform="matrix(0.50000002,0,0,0.24998223,1.9003014e-8,227.86684)" />
    <path
       style="fill:#000000;fill-opacity:0.2;stroke:none;stroke-width:0.52916676;stroke-linecap:round;stroke-linejoin:round;stroke-miterlimit:4;stroke-dasharray:none;stroke-opacity:1"
       d="M 3.1077784,286.41668 H 18.05889 c 1.42855,0 2.578612,0.0917 2.578612,1.52028 v 5.95529 c 0,1.42855 -1.150062,2.57861 -2.578612,2.57861 H 3.1077784 c -1.4285508,0 -2.57861166,-1.15006 -2.57861166,-2.57861 v -5.95529 c 0,-1.42855 1.15006086,-1.52028 2.57861166,-1.52028 z"
       id="rect816"
       inkscape:connector-curvature="0"
       sodipodi:nodetypes="sssssssss" />
    <path
       style="fill:#000000;fill-opacity:0.09803922;stroke:none;stroke-width:0.5291667;stroke-linecap:butt;stroke-linejoin:round;stroke-miterlimit:4;stroke-dasharray:none;stroke-opacity:1"
       d="m 10.583334,292.67338 -4.1522016,1.04387 -0.2359029,0.8754 4.3881045,-1.04386 4.388105,1.04386 -0.235903,-0.8754 z"
       id="path1626"
       inkscape:connector-curvature="0" />
    <path
       style="fill:#000000;fill-opacity:0.09803922;stroke:none;stroke-width:0.52916676;stroke-linecap:butt;stroke-linejoin:round;stroke-miterlimit:4;stroke-dasharray:none;stroke-opacity:1"
       d="m 4.9042421,290.39741 2.5000888,1.14446 0.0018,0.68686 -0.5934405,-0.0949 -2.9197255,-1.56668 z"
       id="path1631"
       inkscape:connector-curvature="0"
       sodipodi:nodetypes="cccccc" />
    <path
       sodipodi:nodetypes="cccccc"
       inkscape:connector-curvature="0"
       id="path1635"
       d="m 16.253608,290.39741 -2.500089,1.14446 -0.0018,0.68686 0.59344,-0.0949 2.919726,-1.56668 z"
       style="fill:#000000;fill-opacity:0.09803922;stroke:none;stroke-width:0.52916676;stroke-linecap:butt;stroke-linejoin:round;stroke-miterlimit:4;stroke-dasharray:none;stroke-opacity:1" />
    <path
       sodipodi:type="star"
       style="fill:none;fill-opacity:1;stroke:#978c24;stroke-width:1.49676275;stroke-linecap:butt;stroke-linejoin:round;stroke-miterlimit:4;stroke-dasharray:none;stroke-opacity:1"
       id="path1624"
       sodipodi:sides="5"
       sodipodi:cx="21.166668"
       sodipodi:cy="255.14301"
       sodipodi:r1="14.875608"
       sodipodi:r2="7.4378042"
       sodipodi:arg1="-1.5707963"
       sodipodi:arg2="-0.9424778"
       inkscape:flatsided="false"
       inkscape:rounded="0"
       inkscape:randomized="0"
       d="m 21.166668,240.2674 4.371832,8.8583 9.775712,1.42049 -7.073772,6.89522 1.669891,9.73622 -8.743663,-4.59682 -8.743664,4.59682 1.669892,-9.73622 -7.0737723,-6.89522 9.7757123,-1.42049 z"
       inkscape:transform-center-y="-0.35509647"
       transform="matrix(0.50000002,0,0,0.24998223,1.9003014e-8,227.86684)" />
    <path
       style="fill:#ffffff;fill-opacity:1;stroke:none;stroke-width:0.52916676;stroke-linecap:round;stroke-linejoin:round;stroke-miterlimit:4;stroke-dasharray:none;stroke-opacity:1;paint-order:normal"
       d="m 25.91422,274.6092 4.023608,-0.5724 1.801365,-3.80475 1.8182,3.77108 4.006773,0.60607 -2.575783,2.50844 0.791254,4.51183 -4.006773,-2.13807 -4.040445,2.12123 0.757583,-4.49499 z"
       id="path933"
       inkscape:connector-curvature="0" />
    <path
       style="fill:#ffffff;fill-opacity:0.6;stroke:none;stroke-width:0.52916676;stroke-linecap:round;stroke-linejoin:round;stroke-miterlimit:4;stroke-dasharray:none;stroke-opacity:1;paint-order:normal"
       d="m 31.757342,288.36749 -1.946195,1.95813 -3.367037,0.25074 2.137233,0.96712 v 0.6567 l -0.441774,1.39696 3.617773,-0.91937 3.605833,0.91937 -0.465654,-1.37309 0.01193,-0.69251 2.149174,-0.96712 -3.355098,-0.2388 z"
       id="path935"
       inkscape:connector-curvature="0" />
  </g>
</svg>
