<?xml version="1.0" encoding="UTF-8" standalone="no"?>
<!-- Created with Inkscape (http://www.inkscape.org/) -->

<svg
   xmlns:dc="http://purl.org/dc/elements/1.1/"
   xmlns:cc="http://creativecommons.org/ns#"
   xmlns:rdf="http://www.w3.org/1999/02/22-rdf-syntax-ns#"
   xmlns:svg="http://www.w3.org/2000/svg"
   xmlns="http://www.w3.org/2000/svg"
   xmlns:sodipodi="http://sodipodi.sourceforge.net/DTD/sodipodi-0.dtd"
   xmlns:inkscape="http://www.inkscape.org/namespaces/inkscape"
   width="600"
   height="392"
   viewBox="0 0 158.75 103.71667"
   version="1.1"
   id="svg8"
   inkscape:version="0.92.5 (2060ec1f9f, 2020-04-08)"
   sodipodi:docname="door1.svg"
   inkscape:export-filename="/home/victor/Projects/sokoadventure-2/data/img/sprite/door1.png"
   inkscape:export-xdpi="96"
   inkscape:export-ydpi="96">
  <defs
     id="defs2" />
  <sodipodi:namedview
     id="base"
     pagecolor="#ffffff"
     bordercolor="#666666"
     borderopacity="1.0"
     inkscape:pageopacity="0.0"
     inkscape:pageshadow="2"
     inkscape:zoom="1"
     inkscape:cx="425.29943"
     inkscape:cy="54.690161"
     inkscape:document-units="px"
     inkscape:current-layer="layer1"
     showgrid="false"
     units="px"
     inkscape:pagecheckerboard="true"
     inkscape:showpageshadow="false"
     inkscape:window-width="1920"
     inkscape:window-height="1015"
     inkscape:window-x="0"
     inkscape:window-y="0"
     inkscape:window-maximized="1"
     inkscape:snap-global="false" />
  <metadata
     id="metadata5">
    <rdf:RDF>
      <cc:Work
         rdf:about="">
        <dc:format>image/svg+xml</dc:format>
        <dc:type
           rdf:resource="http://purl.org/dc/dcmitype/StillImage" />
        <dc:title></dc:title>
      </cc:Work>
    </rdf:RDF>
  </metadata>
  <g
     inkscape:label="Layer 1"
     inkscape:groupmode="layer"
     id="layer1"
     transform="translate(0,-193.28332)">
    <path
       sodipodi:nodetypes="ccccc"
       inkscape:connector-curvature="0"
       id="path1486"
       d="M 5.8208335,221.85818 H 25.929168 v -28.04583 c 0,0 -11.54447,0.31903 -20.1083345,6.87916 z"
       style="fill:#ffffff;fill-opacity:1;stroke:#505050;stroke-width:1.0583334;stroke-linecap:butt;stroke-linejoin:round;stroke-miterlimit:4;stroke-dasharray:none;stroke-opacity:1;paint-order:normal" />
    <path
       style="fill:#ffffff;fill-opacity:1;stroke:#505050;stroke-width:1.0583334;stroke-linecap:butt;stroke-linejoin:round;stroke-miterlimit:4;stroke-dasharray:none;stroke-opacity:1;paint-order:normal"
       d="M 47.095835,221.85829 H 26.987501 v -28.04583 c 0,0 11.54447,0.31903 20.108334,6.87916 z"
       id="path1488"
       inkscape:connector-curvature="0"
       sodipodi:nodetypes="ccccc" />
    <path
       style="fill:#7d7d7d;fill-opacity:1;stroke:#333333;stroke-width:1.0583334;stroke-linecap:butt;stroke-linejoin:round;stroke-miterlimit:4;stroke-dasharray:none;stroke-opacity:1;paint-order:normal"
       d="m 106.3625,253.60832 v 20.63751 c 0,1.169 0.94767,2.11666 2.11667,2.11666 1.169,0 2.11667,-0.94766 2.11667,-2.11666 v -20.63751 z"
       id="rect1472"
       inkscape:connector-curvature="0"
       sodipodi:nodetypes="ccsccc" />
    <circle
       style="fill:#7d7d7d;fill-opacity:1;stroke:#333333;stroke-width:1.0583334;stroke-linecap:butt;stroke-linejoin:round;stroke-miterlimit:4;stroke-dasharray:none;stroke-opacity:1;paint-order:normal"
       id="path1470"
       cx="108.47917"
       cy="253.07915"
       r="2.1166668" />
    <path
       style="fill:#cccccc;fill-opacity:1;stroke:#505050;stroke-width:1.0583334;stroke-linecap:butt;stroke-linejoin:round;stroke-miterlimit:4;stroke-dasharray:none;stroke-opacity:1;paint-order:normal"
       d="M 5.8208335,223.97482 H 25.929168 v -28.04583 c 0,0 -11.54447,0.31903 -20.1083345,6.87916 z"
       id="path1478"
       inkscape:connector-curvature="0"
       sodipodi:nodetypes="ccccc" />
    <path
       sodipodi:nodetypes="ccsccc"
       inkscape:connector-curvature="0"
       id="path1480"
       d="m 158.22084,253.60832 v 20.6375 c 0,1.169 -0.94767,2.11667 -2.11667,2.11667 -1.169,0 -2.11667,-0.94767 -2.11667,-2.11667 v -20.6375 z"
       style="fill:#7d7d7d;fill-opacity:1;stroke:#333333;stroke-width:1.0583334;stroke-linecap:butt;stroke-linejoin:round;stroke-miterlimit:4;stroke-dasharray:none;stroke-opacity:1;paint-order:normal" />
    <circle
       r="2.1166668"
       cy="253.07915"
       cx="-156.10417"
       id="circle1482"
       style="fill:#7d7d7d;fill-opacity:1;stroke:#333333;stroke-width:1.0583334;stroke-linecap:butt;stroke-linejoin:round;stroke-miterlimit:4;stroke-dasharray:none;stroke-opacity:1;paint-order:normal"
       transform="scale(-1,1)" />
    <path
       sodipodi:nodetypes="ccccc"
       inkscape:connector-curvature="0"
       id="path1484"
       d="M 47.095835,223.97493 H 26.987501 V 195.9291 c 0,0 11.54447,0.31903 20.108334,6.87916 z"
       style="fill:#cccccc;fill-opacity:1;stroke:#505050;stroke-width:1.0583334;stroke-linecap:butt;stroke-linejoin:round;stroke-miterlimit:4;stroke-dasharray:none;stroke-opacity:1;paint-order:normal" />
    <path
       inkscape:connector-curvature="0"
       id="path1524"
       d="m 58.380653,221.76035 -0.701474,-18.55545 0.616975,-2.12903 c 0,0 7.182543,-4.45322 17.745108,-3.98464 l 10e-7,29.06493 -0.560041,2.89263 z"
       style="fill:#ffffff;fill-opacity:1;stroke:#505050;stroke-width:1.0583334;stroke-linecap:butt;stroke-linejoin:round;stroke-miterlimit:4;stroke-dasharray:none;stroke-opacity:1;paint-order:normal"
       sodipodi:nodetypes="ccccccc" />
    <path
       sodipodi:nodetypes="ccccccc"
       inkscape:connector-curvature="0"
       id="path1555"
       d="m 111.41702,200.74423 -1.61493,2.27596 1.61493,18.47546 13.17433,12.10067 1.61491,-2.27637 v -31.86028 c 0,0 -7.22464,-2.12938 -14.78924,1.28456 z"
       style="fill:#ffffff;fill-opacity:1;stroke:none;stroke-width:1.0583334;stroke-linecap:round;stroke-linejoin:round;stroke-miterlimit:4;stroke-dasharray:none;stroke-opacity:1;paint-order:normal" />
    <path
       style="fill:#cccccc;fill-opacity:1;stroke:#505050;stroke-width:1.0583334;stroke-linecap:butt;stroke-linejoin:round;stroke-miterlimit:4;stroke-dasharray:none;stroke-opacity:1;paint-order:normal"
       d="m 57.789149,223.90243 -0.0845,-20.68448 c 0,0 7.098045,-4.52016 17.745111,-3.98464 l 10e-7,29.85867 z"
       id="path1522"
       inkscape:connector-curvature="0"
       sodipodi:nodetypes="ccccc" />
    <path
       style="fill:none;fill-opacity:1;stroke:#505050;stroke-width:1.0583334;stroke-linecap:round;stroke-linejoin:round;stroke-miterlimit:4;stroke-dasharray:none;stroke-opacity:1;paint-order:normal"
       d="m 75.258286,199.24115 0.779082,-2.13639"
       id="path1526"
       inkscape:connector-curvature="0" />
    <path
       style="fill:#cccccc;fill-opacity:1;stroke:none;stroke-width:1.0583334;stroke-linecap:round;stroke-linejoin:round;stroke-miterlimit:4;stroke-dasharray:none;stroke-opacity:1;paint-order:normal"
       d="m 124.53409,201.60573 v 31.41526 l 1.68784,-1.94648 0.0603,-31.32032 z"
       id="path1583"
       inkscape:connector-curvature="0"
       sodipodi:nodetypes="ccccc" />
    <path
       style="fill:none;fill-opacity:1;stroke:#505050;stroke-width:1.0583334;stroke-linecap:round;stroke-linejoin:round;stroke-miterlimit:4;stroke-dasharray:none;stroke-opacity:1;paint-order:normal"
       d="m 111.41702,200.74423 -1.61493,2.27596 1.61493,18.47546 13.17433,12.10067 1.61491,-2.27637 v -31.86028 c 0,0 -7.22464,-2.12938 -14.78924,1.28456 z"
       id="path1585"
       inkscape:connector-curvature="0"
       sodipodi:nodetypes="ccccccc" />
    <path
       style="fill:#cccccc;fill-opacity:1;stroke:#505050;stroke-width:1.0583334;stroke-linecap:round;stroke-linejoin:round;stroke-miterlimit:4;stroke-dasharray:none;stroke-opacity:1;paint-order:normal"
       d="m 109.80209,203.02019 v 20.75142 l 14.78926,9.8243 v -31.86028 c 0,0 -7.22465,-2.12938 -14.78926,1.28456 z"
       id="path1553"
       inkscape:connector-curvature="0"
       sodipodi:nodetypes="ccccc" />
    <path
       style="fill:#ffffff;fill-opacity:1;stroke:#505050;stroke-width:1.0583334;stroke-linecap:round;stroke-linejoin:round;stroke-miterlimit:4;stroke-dasharray:none;stroke-opacity:1;paint-order:normal"
       d="m 124.42135,201.80892 1.69992,-2.27596"
       id="path1557"
       inkscape:connector-curvature="0"
       sodipodi:nodetypes="cc" />
    <path
       sodipodi:nodetypes="ccccccc"
       style="fill:#ffffff;fill-opacity:1;stroke:#505050;stroke-width:1.0583334;stroke-linecap:butt;stroke-linejoin:round;stroke-miterlimit:4;stroke-dasharray:none;stroke-opacity:1;paint-order:normal"
       d="m 100.36936,221.76035 0.70148,-18.55545 -0.61698,-2.12903 c 0,0 -7.182546,-4.45322 -17.745106,-3.98464 l -10e-7,29.06492 0.560041,2.89263 z"
       id="path1565"
       inkscape:connector-curvature="0" />
    <path
       sodipodi:nodetypes="ccccc"
       inkscape:connector-curvature="0"
       id="path1567"
       d="m 100.96087,223.90243 0.0845,-20.68448 c 0,0 -7.098053,-4.52016 -17.745113,-3.98464 l -2e-6,29.85867 z"
       style="fill:#cccccc;fill-opacity:1;stroke:#505050;stroke-width:1.0583334;stroke-linecap:butt;stroke-linejoin:round;stroke-miterlimit:4;stroke-dasharray:none;stroke-opacity:1;paint-order:normal" />
    <path
       inkscape:connector-curvature="0"
       id="path1569"
       d="m 83.49173,199.24115 -0.779081,-2.13639"
       style="fill:none;fill-opacity:1;stroke:#505050;stroke-width:1.0583334;stroke-linecap:round;stroke-linejoin:round;stroke-miterlimit:4;stroke-dasharray:none;stroke-opacity:1;paint-order:normal"
       sodipodi:nodetypes="cc" />
    <path
       inkscape:connector-curvature="0"
       id="path1573"
       d="m 3.1749967,255.14639 3.08081,19.81426 4.9766803,16.7096 2.92281,-1.3388 V 254.5344 c 0,0 -2.36986,-2.60113 -8.1364803,-0.86075 z"
       style="fill:#ffffff;fill-opacity:1;stroke:none;stroke-width:1.0583334;stroke-linecap:round;stroke-linejoin:round;stroke-miterlimit:4;stroke-dasharray:none;stroke-opacity:1;paint-order:normal"
       sodipodi:nodetypes="ccccccc" />
    <path
       style="fill:#cccccc;fill-opacity:1;stroke:none;stroke-width:1.0583334;stroke-linecap:round;stroke-linejoin:round;stroke-miterlimit:4;stroke-dasharray:none;stroke-opacity:1;paint-order:normal"
       d="m 11.233037,291.51263 -0.0561,-35.6475 3.02533,-1.09193 v 35.55255 z"
       id="path1597"
       inkscape:connector-curvature="0"
       sodipodi:nodetypes="ccccc" />
    <path
       sodipodi:nodetypes="ccccccc"
       style="fill:none;fill-opacity:1;stroke:#505050;stroke-width:1.0583334;stroke-linecap:round;stroke-linejoin:round;stroke-miterlimit:4;stroke-dasharray:none;stroke-opacity:1;paint-order:normal"
       d="m 3.1749967,255.14639 3.08081,19.81426 4.9766803,16.7096 2.92281,-1.3388 V 254.5344 c 0,0 -2.36986,-2.60113 -8.1364803,-0.86075 z"
       id="path1599"
       inkscape:connector-curvature="0" />
    <path
       style="fill:#cccccc;fill-opacity:1;stroke:#505050;stroke-width:1.0583334;stroke-linecap:round;stroke-linejoin:round;stroke-miterlimit:4;stroke-dasharray:none;stroke-opacity:1;paint-order:normal"
       d="m 3.2539967,255.14639 v 21.15306 l 7.8994903,15.3708 V 255.8732 c 0,0 -2.1328703,-2.46725 -7.8994903,-0.72685 z"
       id="path1571"
       inkscape:connector-curvature="0"
       sodipodi:nodetypes="cccccc" />
    <path
       style="fill:#cccccc;fill-opacity:1;stroke:#505050;stroke-width:1.0583334;stroke-linecap:round;stroke-linejoin:round;stroke-miterlimit:4;stroke-dasharray:none;stroke-opacity:1;paint-order:normal"
       d="m 11.159527,255.90411 2.98765,-1.16889"
       id="path1575"
       inkscape:connector-curvature="0"
       sodipodi:nodetypes="cc" />
    <path
       style="fill:#ffffff;fill-opacity:1;stroke:none;stroke-width:1.0583334;stroke-linecap:round;stroke-linejoin:round;stroke-miterlimit:4;stroke-dasharray:none;stroke-opacity:1;paint-order:normal"
       d="m 153.16628,200.74423 1.61491,2.27596 -1.61491,18.47546 -13.17427,12.10067 -1.61492,-2.27637 v -31.86028 c 0,0 7.2246,-2.12938 14.78919,1.28456 z"
       id="path1587"
       inkscape:connector-curvature="0"
       sodipodi:nodetypes="ccccccc" />
    <path
       inkscape:connector-curvature="0"
       id="path1589"
       d="m 140.04927,201.60573 v 31.41526 l -1.68784,-1.94648 -0.0603,-31.32032 z"
       style="fill:#cccccc;fill-opacity:1;stroke:none;stroke-width:1.0583334;stroke-linecap:round;stroke-linejoin:round;stroke-miterlimit:4;stroke-dasharray:none;stroke-opacity:1;paint-order:normal"
       sodipodi:nodetypes="ccccc" />
    <path
       sodipodi:nodetypes="ccccccc"
       inkscape:connector-curvature="0"
       id="path1591"
       d="m 153.16628,200.74423 1.61491,2.27596 -1.61491,18.47546 -13.17427,12.10067 -1.61492,-2.27637 v -31.86028 c 0,0 7.2246,-2.12938 14.78919,1.28456 z"
       style="fill:none;fill-opacity:1;stroke:#505050;stroke-width:1.0583334;stroke-linecap:round;stroke-linejoin:round;stroke-miterlimit:4;stroke-dasharray:none;stroke-opacity:1;paint-order:normal" />
    <path
       sodipodi:nodetypes="ccccc"
       inkscape:connector-curvature="0"
       id="path1593"
       d="m 154.78119,203.02019 v 20.75142 l -14.78918,9.8243 v -31.86028 c 0,0 7.2246,-2.12938 14.78918,1.28456 z"
       style="fill:#cccccc;fill-opacity:1;stroke:#505050;stroke-width:1.0583334;stroke-linecap:round;stroke-linejoin:round;stroke-miterlimit:4;stroke-dasharray:none;stroke-opacity:1;paint-order:normal" />
    <path
       inkscape:connector-curvature="0"
       id="path1595"
       d="m 140.16199,201.80892 -1.6999,-2.27596"
       style="fill:#ffffff;fill-opacity:1;stroke:#505050;stroke-width:1.0583334;stroke-linecap:round;stroke-linejoin:round;stroke-miterlimit:4;stroke-dasharray:none;stroke-opacity:1;paint-order:normal"
       sodipodi:nodetypes="cc" />
    <path
       sodipodi:nodetypes="ccccccc"
       style="fill:#ffffff;fill-opacity:1;stroke:none;stroke-width:1.0583334;stroke-linecap:round;stroke-linejoin:round;stroke-miterlimit:4;stroke-dasharray:none;stroke-opacity:1;paint-order:normal"
       d="m 49.741637,255.14635 -3.08076,19.81426 -4.97664,16.7096 -2.92278,-1.3388 v -35.79705 c 0,0 2.36983,-2.60113 8.1364,-0.86075 z"
       id="path1601"
       inkscape:connector-curvature="0" />
    <path
       inkscape:connector-curvature="0"
       id="path1603"
       d="m 41.683677,291.51259 0.056,-35.6475 -3.0253,-1.09193 v 35.55255 z"
       style="fill:#cccccc;fill-opacity:1;stroke:none;stroke-width:1.0583334;stroke-linecap:round;stroke-linejoin:round;stroke-miterlimit:4;stroke-dasharray:none;stroke-opacity:1;paint-order:normal"
       sodipodi:nodetypes="ccccc" />
    <path
       inkscape:connector-curvature="0"
       id="path1605"
       d="m 49.741637,255.14635 -3.08076,19.81426 -4.97664,16.7096 -2.92278,-1.3388 v -35.79705 c 0,0 2.36983,-2.60113 8.1364,-0.86075 z"
       style="fill:none;fill-opacity:1;stroke:#505050;stroke-width:1.0583334;stroke-linecap:round;stroke-linejoin:round;stroke-miterlimit:4;stroke-dasharray:none;stroke-opacity:1;paint-order:normal"
       sodipodi:nodetypes="ccccccc" />
    <path
       inkscape:connector-curvature="0"
       id="path1607"
       d="m 49.662647,255.14635 v 21.15306 l -7.89942,15.3708 v -35.79705 c 0,0 2.13285,-2.46725 7.89942,-0.72685 z"
       style="fill:#cccccc;fill-opacity:1;stroke:#505050;stroke-width:1.0583334;stroke-linecap:round;stroke-linejoin:round;stroke-miterlimit:4;stroke-dasharray:none;stroke-opacity:1;paint-order:normal"
       sodipodi:nodetypes="cccccc" />
    <path
       sodipodi:nodetypes="cc"
       inkscape:connector-curvature="0"
       id="path1609"
       d="m 41.757187,255.90407 -2.98761,-1.16889"
       style="fill:#cccccc;fill-opacity:1;stroke:#505050;stroke-width:1.0583334;stroke-linecap:round;stroke-linejoin:round;stroke-miterlimit:4;stroke-dasharray:none;stroke-opacity:1;paint-order:normal" />
    <path
       style="fill:#cccccc;fill-opacity:1;stroke:#505050;stroke-width:1.0583334;stroke-linecap:round;stroke-linejoin:round;stroke-miterlimit:4;stroke-dasharray:none;stroke-opacity:1;paint-order:normal"
       d="m 53.975007,259.42915 h 3.175 v 37.04167 h -3.175 z"
       id="rect1611"
       inkscape:connector-curvature="0"
       sodipodi:nodetypes="ccccc" />
    <rect
       y="255.72499"
       x="53.975002"
       height="3.7041669"
       width="3.175"
       id="rect1613"
       style="fill:#ffffff;fill-opacity:1;stroke:#505050;stroke-width:1.0583334;stroke-linecap:round;stroke-linejoin:round;stroke-miterlimit:4;stroke-dasharray:none;stroke-opacity:1;paint-order:normal" />
    <path
       style="fill:#cccccc;fill-opacity:1;stroke:#505050;stroke-width:1.05833328;stroke-linecap:round;stroke-linejoin:round;stroke-miterlimit:4;stroke-dasharray:none;stroke-opacity:1;paint-order:normal"
       d="m 101.60001,259.42915 h 3.175 v 37.04167 h -3.175 z"
       id="rect1615"
       inkscape:connector-curvature="0" />
    <rect
       style="fill:#ffffff;fill-opacity:1;stroke:#505050;stroke-width:1.0583334;stroke-linecap:round;stroke-linejoin:round;stroke-miterlimit:4;stroke-dasharray:none;stroke-opacity:1;paint-order:normal"
       id="rect1617"
       width="3.175"
       height="3.7041667"
       x="101.60001"
       y="255.72498" />
    <path
       style="fill:#505050;fill-opacity:1;stroke:none;stroke-width:1.0583334;stroke-linecap:round;stroke-linejoin:round;stroke-miterlimit:4;stroke-dasharray:none;stroke-opacity:1;paint-order:normal"
       d="m 26.458334,203.8666 c -2.338004,0 -4.233331,1.89533 -4.233333,4.23333 -3e-6,1.61758 0.907805,3.02195 2.241206,3.73466 l -2.241206,4.20284 h 4.233333 v -3.70417 -4.23333 z"
       id="path873"
       inkscape:connector-curvature="0" />
    <path
       id="path879"
       d="m 26.458334,203.86659 c 2.338003,0 4.233331,1.89534 4.233333,4.23334 3e-6,1.61758 -0.907806,3.02195 -2.241207,3.73465 l 2.241207,4.20285 h -4.233333 v -3.70417 -4.23333 z"
       style="fill:#505050;fill-opacity:1;stroke:none;stroke-width:1.0583334;stroke-linecap:round;stroke-linejoin:round;stroke-miterlimit:4;stroke-dasharray:none;stroke-opacity:1;paint-order:normal"
       inkscape:connector-curvature="0" />
    <path
       id="path881"
       d="m 75.098441,207.79077 c -2.021879,-0.64081 -3.660936,0.73505 -3.660938,3.07304 -2e-6,1.61757 0.78506,3.27078 1.93817,4.34893 l -1.93817,3.58857 3.660938,1.1603 v -3.70417 -4.23333 z"
       style="fill:#505050;fill-opacity:1;stroke:none;stroke-width:1.0583334;stroke-linecap:round;stroke-linejoin:round;stroke-miterlimit:4;stroke-dasharray:none;stroke-opacity:1;paint-order:normal"
       inkscape:connector-curvature="0" />
    <path
       inkscape:connector-curvature="0"
       style="fill:#505050;fill-opacity:1;stroke:none;stroke-width:1.0583334;stroke-linecap:round;stroke-linejoin:round;stroke-miterlimit:4;stroke-dasharray:none;stroke-opacity:1;paint-order:normal"
       d="m 83.648024,207.79077 c 2.021879,-0.64081 3.660936,0.73505 3.660938,3.07304 2e-6,1.61757 -0.78506,3.27078 -1.93817,4.34893 l 1.93817,3.58857 -3.660938,1.1603 v -3.70417 -4.23333 z"
       id="path883" />
    <path
       inkscape:connector-curvature="0"
       style="fill:#505050;fill-opacity:1;stroke:none;stroke-width:1.0583334;stroke-linecap:round;stroke-linejoin:round;stroke-miterlimit:4;stroke-dasharray:none;stroke-opacity:1;paint-order:normal"
       d="m 124.1082,210.61441 c -1.31512,-0.8985 -2.38125,0.2685 -2.38125,2.60646 -1e-5,1.61757 0.51064,3.37084 1.26067,4.59595 l -1.26067,3.34155 2.38125,1.62688 v -3.70417 -4.23333 z"
       id="path885" />
    <path
       id="path889"
       d="m 140.36146,210.61441 c 1.31512,-0.8985 2.38125,0.2685 2.38125,2.60646 1e-5,1.61757 -0.51064,3.37084 -1.26067,4.59595 l 1.26067,3.34155 -2.38125,1.62688 v -3.70417 -4.23333 z"
       style="fill:#505050;fill-opacity:1;stroke:none;stroke-width:1.0583334;stroke-linecap:round;stroke-linejoin:round;stroke-miterlimit:4;stroke-dasharray:none;stroke-opacity:1;paint-order:normal"
       inkscape:connector-curvature="0" />
    <path
       id="path891"
       d="m 10.782967,266.36122 c -0.62169,-1.33022 -1.1256703,-0.41985 -1.1256703,2.03325 -10e-6,1.69723 0.24139,3.68729 0.5959503,5.19371 l -0.5959503,3.13468 1.1256703,2.40857 v -3.88659 -4.44181 z"
       style="fill:#505050;fill-opacity:1;stroke:none;stroke-width:1.0583334;stroke-linecap:round;stroke-linejoin:round;stroke-miterlimit:4;stroke-dasharray:none;stroke-opacity:1;paint-order:normal"
       inkscape:connector-curvature="0" />
    <path
       inkscape:connector-curvature="0"
       style="fill:#505050;fill-opacity:1;stroke:none;stroke-width:1.0583334;stroke-linecap:round;stroke-linejoin:round;stroke-miterlimit:4;stroke-dasharray:none;stroke-opacity:1;paint-order:normal"
       d="m 42.068757,266.36122 c 0.62169,-1.33022 1.12567,-0.41985 1.12567,2.03325 1e-5,1.69723 -0.24139,3.68729 -0.59595,5.19371 l 0.59595,3.13468 -1.12567,2.40857 v -3.88659 -4.44181 z"
       id="path893" />
  </g>
</svg>
