<?xml version="1.0" encoding="UTF-8" standalone="no"?>
<!-- Created with Inkscape (http://www.inkscape.org/) -->

<svg
   xmlns:dc="http://purl.org/dc/elements/1.1/"
   xmlns:cc="http://creativecommons.org/ns#"
   xmlns:rdf="http://www.w3.org/1999/02/22-rdf-syntax-ns#"
   xmlns:svg="http://www.w3.org/2000/svg"
   xmlns="http://www.w3.org/2000/svg"
   xmlns:sodipodi="http://sodipodi.sourceforge.net/DTD/sodipodi-0.dtd"
   xmlns:inkscape="http://www.inkscape.org/namespaces/inkscape"
   width="300"
   height="196"
   viewBox="0 0 79.375 51.858335"
   version="1.1"
   id="svg8"
   inkscape:version="0.92.5 (2060ec1f9f, 2020-04-08)"
   sodipodi:docname="door1.svg"
   inkscape:export-filename="/home/victor/Projects/sokoadventure-2/data/img/sprite/door1.png"
   inkscape:export-xdpi="96"
   inkscape:export-ydpi="96">
  <defs
     id="defs2" />
  <sodipodi:namedview
     id="base"
     pagecolor="#ffffff"
     bordercolor="#666666"
     borderopacity="1.0"
     inkscape:pageopacity="0.0"
     inkscape:pageshadow="2"
     inkscape:zoom="1"
     inkscape:cx="199.29943"
     inkscape:cy="87.690161"
     inkscape:document-units="px"
     inkscape:current-layer="layer1"
     showgrid="false"
     units="px"
     inkscape:pagecheckerboard="true"
     inkscape:showpageshadow="false"
     inkscape:window-width="1920"
     inkscape:window-height="1015"
     inkscape:window-x="0"
     inkscape:window-y="0"
     inkscape:window-maximized="1"
     inkscape:snap-global="false" />
  <metadata
     id="metadata5">
    <rdf:RDF>
      <cc:Work
         rdf:about="">
        <dc:format>image/svg+xml</dc:format>
        <dc:type
           rdf:resource="http://purl.org/dc/dcmitype/StillImage" />
        <dc:title></dc:title>
      </cc:Work>
    </rdf:RDF>
  </metadata>
  <g
     inkscape:label="Layer 1"
     inkscape:groupmode="layer"
     id="layer1"
     transform="translate(0,-245.14165)">
    <path
       sodipodi:nodetypes="ccccc"
       inkscape:connector-curvature="0"
       id="path1486"
       d="m 2.910415,259.42913 h 10.054167 v -14.0229 c 0,0 -5.772235,0.15952 -10.054167,3.43958 z"
       style="fill:#ffffff;fill-opacity:1;stroke:#505050;stroke-width:0.5291664;stroke-linecap:butt;stroke-linejoin:round;stroke-miterlimit:4;stroke-dasharray:none;stroke-opacity:1;paint-order:normal" />
    <path
       style="fill:#ffffff;fill-opacity:1;stroke:#505050;stroke-width:0.5291664;stroke-linecap:butt;stroke-linejoin:round;stroke-miterlimit:4;stroke-dasharray:none;stroke-opacity:1;paint-order:normal"
       d="M 23.547915,259.42918 H 13.493748 v -14.0229 c 0,0 5.772236,0.15952 10.054167,3.43958 z"
       id="path1488"
       inkscape:connector-curvature="0"
       sodipodi:nodetypes="ccccc" />
    <path
       style="fill:#7d7d7d;fill-opacity:1;stroke:#333333;stroke-width:0.5291664;stroke-linecap:butt;stroke-linejoin:round;stroke-miterlimit:4;stroke-dasharray:none;stroke-opacity:1;paint-order:normal"
       d="m 53.181247,275.30418 v 10.31874 c 0,0.5845 0.473836,1.05833 1.058336,1.05833 0.5845,0 1.058335,-0.47383 1.058335,-1.05833 v -10.31874 z"
       id="rect1472"
       inkscape:connector-curvature="0"
       sodipodi:nodetypes="ccsccc" />
    <ellipse
       style="fill:#7d7d7d;fill-opacity:1;stroke:#333333;stroke-width:0.5291664;stroke-linecap:butt;stroke-linejoin:round;stroke-miterlimit:4;stroke-dasharray:none;stroke-opacity:1;paint-order:normal"
       id="path1470"
       cx="54.239582"
       cy="275.03958"
       rx="1.0583334"
       ry="1.0583321" />
    <path
       style="fill:#cccccc;fill-opacity:1;stroke:#505050;stroke-width:0.5291664;stroke-linecap:butt;stroke-linejoin:round;stroke-miterlimit:4;stroke-dasharray:none;stroke-opacity:1;paint-order:normal"
       d="m 2.910415,260.48745 h 10.054167 v -14.0229 c 0,0 -5.772235,0.15952 -10.054167,3.43957 z"
       id="path1478"
       inkscape:connector-curvature="0"
       sodipodi:nodetypes="ccccc" />
    <path
       sodipodi:nodetypes="ccsccc"
       inkscape:connector-curvature="0"
       id="path1480"
       d="m 79.110418,275.30418 v 10.31873 c 0,0.5845 -0.473835,1.05834 -1.058335,1.05834 -0.5845,0 -1.058335,-0.47384 -1.058335,-1.05834 v -10.31873 z"
       style="fill:#7d7d7d;fill-opacity:1;stroke:#333333;stroke-width:0.5291664;stroke-linecap:butt;stroke-linejoin:round;stroke-miterlimit:4;stroke-dasharray:none;stroke-opacity:1;paint-order:normal" />
    <ellipse
       cy="275.03958"
       cx="-78.052086"
       id="circle1482"
       style="fill:#7d7d7d;fill-opacity:1;stroke:#333333;stroke-width:0.5291664;stroke-linecap:butt;stroke-linejoin:round;stroke-miterlimit:4;stroke-dasharray:none;stroke-opacity:1;paint-order:normal"
       transform="scale(-1,1)"
       rx="1.0583334"
       ry="1.0583321" />
    <path
       sodipodi:nodetypes="ccccc"
       inkscape:connector-curvature="0"
       id="path1484"
       d="M 23.547915,260.4875 H 13.493748 v -14.0229 c 0,0 5.772236,0.15952 10.054167,3.43958 z"
       style="fill:#cccccc;fill-opacity:1;stroke:#505050;stroke-width:0.5291664;stroke-linecap:butt;stroke-linejoin:round;stroke-miterlimit:4;stroke-dasharray:none;stroke-opacity:1;paint-order:normal" />
    <path
       inkscape:connector-curvature="0"
       id="path1524"
       d="m 29.190324,259.38021 -0.350736,-9.27771 0.308487,-1.06451 c 0,0 3.591272,-2.22661 8.872554,-1.99232 l 10e-7,14.53244 -0.280021,1.44632 z"
       style="fill:#ffffff;fill-opacity:1;stroke:#505050;stroke-width:0.5291664;stroke-linecap:butt;stroke-linejoin:round;stroke-miterlimit:4;stroke-dasharray:none;stroke-opacity:1;paint-order:normal"
       sodipodi:nodetypes="ccccccc" />
    <path
       sodipodi:nodetypes="ccccccc"
       inkscape:connector-curvature="0"
       id="path1555"
       d="m 55.708508,248.87217 -0.807466,1.13797 0.807466,9.23772 6.587165,6.05033 0.807455,-1.13818 v -15.93012 c 0,0 -3.61232,-1.06469 -7.39462,0.64228 z"
       style="fill:#ffffff;fill-opacity:1;stroke:none;stroke-width:0.5291664;stroke-linecap:round;stroke-linejoin:round;stroke-miterlimit:4;stroke-dasharray:none;stroke-opacity:1;paint-order:normal" />
    <path
       style="fill:#cccccc;fill-opacity:1;stroke:#505050;stroke-width:0.5291664;stroke-linecap:butt;stroke-linejoin:round;stroke-miterlimit:4;stroke-dasharray:none;stroke-opacity:1;paint-order:normal"
       d="m 28.894573,260.45125 -0.04225,-10.34222 c 0,0 3.549022,-2.26008 8.872556,-1.99232 v 14.92931 z"
       id="path1522"
       inkscape:connector-curvature="0"
       sodipodi:nodetypes="ccccc" />
    <path
       style="fill:none;fill-opacity:1;stroke:#505050;stroke-width:0.5291664;stroke-linecap:round;stroke-linejoin:round;stroke-miterlimit:4;stroke-dasharray:none;stroke-opacity:1;paint-order:normal"
       d="m 37.629141,248.12063 0.389542,-1.0682"
       id="path1526"
       inkscape:connector-curvature="0" />
    <path
       style="fill:#cccccc;fill-opacity:1;stroke:none;stroke-width:0.5291664;stroke-linecap:round;stroke-linejoin:round;stroke-miterlimit:4;stroke-dasharray:none;stroke-opacity:1;paint-order:normal"
       d="m 62.267043,249.30292 v 15.70761 l 0.84392,-0.97324 0.03015,-15.66014 z"
       id="path1583"
       inkscape:connector-curvature="0"
       sodipodi:nodetypes="ccccc" />
    <path
       style="fill:none;fill-opacity:1;stroke:#505050;stroke-width:0.5291664;stroke-linecap:round;stroke-linejoin:round;stroke-miterlimit:4;stroke-dasharray:none;stroke-opacity:1;paint-order:normal"
       d="m 55.708508,248.87217 -0.807466,1.13797 0.807466,9.23772 6.587165,6.05033 0.807455,-1.13818 v -15.93012 c 0,0 -3.61232,-1.06469 -7.39462,0.64228 z"
       id="path1585"
       inkscape:connector-curvature="0"
       sodipodi:nodetypes="ccccccc" />
    <path
       style="fill:#cccccc;fill-opacity:1;stroke:#505050;stroke-width:0.5291664;stroke-linecap:round;stroke-linejoin:round;stroke-miterlimit:4;stroke-dasharray:none;stroke-opacity:1;paint-order:normal"
       d="m 54.901042,250.01014 v 10.3757 l 7.394631,4.91214 v -15.93012 c 0,0 -3.612325,-1.06469 -7.394631,0.64228 z"
       id="path1553"
       inkscape:connector-curvature="0"
       sodipodi:nodetypes="ccccc" />
    <path
       style="fill:#ffffff;fill-opacity:1;stroke:#505050;stroke-width:0.5291664;stroke-linecap:round;stroke-linejoin:round;stroke-miterlimit:4;stroke-dasharray:none;stroke-opacity:1;paint-order:normal"
       d="m 62.210673,249.40451 0.84996,-1.13798"
       id="path1557"
       inkscape:connector-curvature="0"
       sodipodi:nodetypes="cc" />
    <path
       sodipodi:nodetypes="ccccccc"
       style="fill:#ffffff;fill-opacity:1;stroke:#505050;stroke-width:0.5291664;stroke-linecap:butt;stroke-linejoin:round;stroke-miterlimit:4;stroke-dasharray:none;stroke-opacity:1;paint-order:normal"
       d="m 50.184678,259.38021 0.35074,-9.27771 -0.308489,-1.06451 c 0,0 -3.591273,-2.22661 -8.872553,-1.99232 l -1e-6,14.53244 0.280021,1.44631 z"
       id="path1565"
       inkscape:connector-curvature="0" />
    <path
       sodipodi:nodetypes="ccccc"
       inkscape:connector-curvature="0"
       id="path1567"
       d="m 50.480434,260.45125 0.04225,-10.34222 c 0,0 -3.549026,-2.26008 -8.872556,-1.99232 l -1e-6,14.92931 z"
       style="fill:#cccccc;fill-opacity:1;stroke:#505050;stroke-width:0.5291664;stroke-linecap:butt;stroke-linejoin:round;stroke-miterlimit:4;stroke-dasharray:none;stroke-opacity:1;paint-order:normal" />
    <path
       inkscape:connector-curvature="0"
       id="path1569"
       d="m 41.745863,248.12063 -0.38954,-1.0682"
       style="fill:none;fill-opacity:1;stroke:#505050;stroke-width:0.5291664;stroke-linecap:round;stroke-linejoin:round;stroke-miterlimit:4;stroke-dasharray:none;stroke-opacity:1;paint-order:normal"
       sodipodi:nodetypes="cc" />
    <path
       inkscape:connector-curvature="0"
       id="path1573"
       d="m 1.5874965,276.07321 1.5404051,9.90712 2.4883401,8.35479 1.4614048,-0.6694 v -17.89851 c 0,0 -1.18493,-1.30056 -4.0682399,-0.43037 z"
       style="fill:#ffffff;fill-opacity:1;stroke:none;stroke-width:0.5291664;stroke-linecap:round;stroke-linejoin:round;stroke-miterlimit:4;stroke-dasharray:none;stroke-opacity:1;paint-order:normal"
       sodipodi:nodetypes="ccccccc" />
    <path
       style="fill:#cccccc;fill-opacity:1;stroke:none;stroke-width:0.5291664;stroke-linecap:round;stroke-linejoin:round;stroke-miterlimit:4;stroke-dasharray:none;stroke-opacity:1;paint-order:normal"
       d="m 5.6165168,294.25631 -0.02805,-17.82373 1.5126648,-0.54597 v 17.77626 z"
       id="path1597"
       inkscape:connector-curvature="0"
       sodipodi:nodetypes="ccccc" />
    <path
       sodipodi:nodetypes="ccccccc"
       style="fill:none;fill-opacity:1;stroke:#505050;stroke-width:0.5291664;stroke-linecap:round;stroke-linejoin:round;stroke-miterlimit:4;stroke-dasharray:none;stroke-opacity:1;paint-order:normal"
       d="m 1.5874965,276.07321 1.5404051,9.90712 2.4883401,8.35479 1.4614048,-0.6694 v -17.89851 c 0,0 -1.18493,-1.30056 -4.0682399,-0.43037 z"
       id="path1599"
       inkscape:connector-curvature="0" />
    <path
       style="fill:#cccccc;fill-opacity:1;stroke:#505050;stroke-width:0.5291664;stroke-linecap:round;stroke-linejoin:round;stroke-miterlimit:4;stroke-dasharray:none;stroke-opacity:1;paint-order:normal"
       d="m 1.6269965,276.07321 v 10.57652 l 3.9497452,7.68539 v -17.89851 c 0,0 -1.0664351,-1.23362 -3.9497452,-0.36342 z"
       id="path1571"
       inkscape:connector-curvature="0"
       sodipodi:nodetypes="cccccc" />
    <path
       style="fill:#cccccc;fill-opacity:1;stroke:#505050;stroke-width:0.5291664;stroke-linecap:round;stroke-linejoin:round;stroke-miterlimit:4;stroke-dasharray:none;stroke-opacity:1;paint-order:normal"
       d="m 5.5797617,276.45207 1.4938248,-0.58444"
       id="path1575"
       inkscape:connector-curvature="0"
       sodipodi:nodetypes="cc" />
    <path
       style="fill:#ffffff;fill-opacity:1;stroke:none;stroke-width:0.5291664;stroke-linecap:round;stroke-linejoin:round;stroke-miterlimit:4;stroke-dasharray:none;stroke-opacity:1;paint-order:normal"
       d="m 76.583138,248.87217 0.807455,1.13797 -0.807455,9.23772 -6.587135,6.05033 -0.80746,-1.13818 v -15.93012 c 0,0 3.6123,-1.06469 7.394595,0.64228 z"
       id="path1587"
       inkscape:connector-curvature="0"
       sodipodi:nodetypes="ccccccc" />
    <path
       inkscape:connector-curvature="0"
       id="path1589"
       d="m 70.024633,249.30292 v 15.70761 l -0.84392,-0.97324 -0.03015,-15.66014 z"
       style="fill:#cccccc;fill-opacity:1;stroke:none;stroke-width:0.5291664;stroke-linecap:round;stroke-linejoin:round;stroke-miterlimit:4;stroke-dasharray:none;stroke-opacity:1;paint-order:normal"
       sodipodi:nodetypes="ccccc" />
    <path
       sodipodi:nodetypes="ccccccc"
       inkscape:connector-curvature="0"
       id="path1591"
       d="m 76.583138,248.87217 0.807455,1.13797 -0.807455,9.23772 -6.587135,6.05033 -0.80746,-1.13818 v -15.93012 c 0,0 3.6123,-1.06469 7.394595,0.64228 z"
       style="fill:none;fill-opacity:1;stroke:#505050;stroke-width:0.5291664;stroke-linecap:round;stroke-linejoin:round;stroke-miterlimit:4;stroke-dasharray:none;stroke-opacity:1;paint-order:normal" />
    <path
       sodipodi:nodetypes="ccccc"
       inkscape:connector-curvature="0"
       id="path1593"
       d="m 77.390593,250.01014 v 10.3757 l -7.39459,4.91214 v -15.93012 c 0,0 3.6123,-1.06469 7.39459,0.64228 z"
       style="fill:#cccccc;fill-opacity:1;stroke:#505050;stroke-width:0.5291664;stroke-linecap:round;stroke-linejoin:round;stroke-miterlimit:4;stroke-dasharray:none;stroke-opacity:1;paint-order:normal" />
    <path
       inkscape:connector-curvature="0"
       id="path1595"
       d="m 70.080994,249.40451 -0.849951,-1.13798"
       style="fill:#ffffff;fill-opacity:1;stroke:#505050;stroke-width:0.5291664;stroke-linecap:round;stroke-linejoin:round;stroke-miterlimit:4;stroke-dasharray:none;stroke-opacity:1;paint-order:normal"
       sodipodi:nodetypes="cc" />
    <path
       sodipodi:nodetypes="ccccccc"
       style="fill:#ffffff;fill-opacity:1;stroke:none;stroke-width:0.5291664;stroke-linecap:round;stroke-linejoin:round;stroke-miterlimit:4;stroke-dasharray:none;stroke-opacity:1;paint-order:normal"
       d="m 24.870817,276.07319 -1.54038,9.90712 -2.488321,8.35479 -1.46139,-0.6694 v -17.89851 c 0,0 1.184916,-1.30056 4.0682,-0.43037 z"
       id="path1601"
       inkscape:connector-curvature="0" />
    <path
       inkscape:connector-curvature="0"
       id="path1603"
       d="m 20.841837,294.25629 0.028,-17.82373 -1.51265,-0.54597 v 17.77626 z"
       style="fill:#cccccc;fill-opacity:1;stroke:none;stroke-width:0.5291664;stroke-linecap:round;stroke-linejoin:round;stroke-miterlimit:4;stroke-dasharray:none;stroke-opacity:1;paint-order:normal"
       sodipodi:nodetypes="ccccc" />
    <path
       inkscape:connector-curvature="0"
       id="path1605"
       d="m 24.870817,276.07319 -1.54038,9.90712 -2.488321,8.35479 -1.46139,-0.6694 v -17.89851 c 0,0 1.184916,-1.30056 4.0682,-0.43037 z"
       style="fill:none;fill-opacity:1;stroke:#505050;stroke-width:0.5291664;stroke-linecap:round;stroke-linejoin:round;stroke-miterlimit:4;stroke-dasharray:none;stroke-opacity:1;paint-order:normal"
       sodipodi:nodetypes="ccccccc" />
    <path
       inkscape:connector-curvature="0"
       id="path1607"
       d="m 24.831322,276.07319 v 10.57652 l -3.949711,7.68539 v -17.89851 c 0,0 1.066425,-1.23362 3.949711,-0.36342 z"
       style="fill:#cccccc;fill-opacity:1;stroke:#505050;stroke-width:0.5291664;stroke-linecap:round;stroke-linejoin:round;stroke-miterlimit:4;stroke-dasharray:none;stroke-opacity:1;paint-order:normal"
       sodipodi:nodetypes="cccccc" />
    <path
       sodipodi:nodetypes="cc"
       inkscape:connector-curvature="0"
       id="path1609"
       d="m 20.878592,276.45205 -1.493805,-0.58444"
       style="fill:#cccccc;fill-opacity:1;stroke:#505050;stroke-width:0.5291664;stroke-linecap:round;stroke-linejoin:round;stroke-miterlimit:4;stroke-dasharray:none;stroke-opacity:1;paint-order:normal" />
    <path
       style="fill:#cccccc;fill-opacity:1;stroke:#505050;stroke-width:0.5291664;stroke-linecap:round;stroke-linejoin:round;stroke-miterlimit:4;stroke-dasharray:none;stroke-opacity:1;paint-order:normal"
       d="m 26.987501,278.21459 h 1.5875 v 18.52081 h -1.5875 z"
       id="rect1611"
       inkscape:connector-curvature="0"
       sodipodi:nodetypes="ccccc" />
    <rect
       y="276.36252"
       x="26.987499"
       height="1.8520811"
       width="1.5875"
       id="rect1613"
       style="fill:#ffffff;fill-opacity:1;stroke:#505050;stroke-width:0.5291664;stroke-linecap:round;stroke-linejoin:round;stroke-miterlimit:4;stroke-dasharray:none;stroke-opacity:1;paint-order:normal" />
    <path
       style="fill:#cccccc;fill-opacity:1;stroke:#505050;stroke-width:0.52916628;stroke-linecap:round;stroke-linejoin:round;stroke-miterlimit:4;stroke-dasharray:none;stroke-opacity:1;paint-order:normal"
       d="m 50.800003,278.21459 h 1.587499 v 18.52081 h -1.587499 z"
       id="rect1615"
       inkscape:connector-curvature="0" />
    <rect
       style="fill:#ffffff;fill-opacity:1;stroke:#505050;stroke-width:0.5291664;stroke-linecap:round;stroke-linejoin:round;stroke-miterlimit:4;stroke-dasharray:none;stroke-opacity:1;paint-order:normal"
       id="rect1617"
       width="1.5875"
       height="1.8520809"
       x="50.800007"
       y="276.36252" />
    <path
       style="fill:#505050;fill-opacity:1;stroke:none;stroke-width:0.5291664;stroke-linecap:round;stroke-linejoin:round;stroke-miterlimit:4;stroke-dasharray:none;stroke-opacity:1;paint-order:normal"
       d="m 13.229165,250.43335 c -1.169002,0 -2.116666,0.94766 -2.116667,2.11666 -1e-6,0.80879 0.453903,1.51098 1.120604,1.86733 l -1.120604,2.10142 h 2.116667 v -1.85209 -2.11666 z"
       id="path873"
       inkscape:connector-curvature="0" />
    <path
       id="path879"
       d="m 13.229165,250.43334 c 1.169001,0 2.116665,0.94767 2.116666,2.11667 2e-6,0.80879 -0.453902,1.51098 -1.120603,1.86732 l 1.120603,2.10143 h -2.116666 v -1.85209 -2.11666 z"
       style="fill:#505050;fill-opacity:1;stroke:none;stroke-width:0.5291664;stroke-linecap:round;stroke-linejoin:round;stroke-miterlimit:4;stroke-dasharray:none;stroke-opacity:1;paint-order:normal"
       inkscape:connector-curvature="0" />
    <path
       id="path881"
       d="m 37.549219,252.39543 c -1.010939,-0.3204 -1.830468,0.36753 -1.830469,1.53652 -10e-7,0.80878 0.39253,1.63539 0.969085,2.17446 l -0.969085,1.79428 1.830469,0.58015 v -1.85208 -2.11666 z"
       style="fill:#505050;fill-opacity:1;stroke:none;stroke-width:0.5291664;stroke-linecap:round;stroke-linejoin:round;stroke-miterlimit:4;stroke-dasharray:none;stroke-opacity:1;paint-order:normal"
       inkscape:connector-curvature="0" />
    <path
       inkscape:connector-curvature="0"
       style="fill:#505050;fill-opacity:1;stroke:none;stroke-width:0.5291664;stroke-linecap:round;stroke-linejoin:round;stroke-miterlimit:4;stroke-dasharray:none;stroke-opacity:1;paint-order:normal"
       d="m 41.82401,252.39543 c 1.01094,-0.3204 1.830468,0.36753 1.830469,1.53652 10e-7,0.80878 -0.39253,1.63539 -0.969085,2.17446 l 0.969085,1.79428 -1.830469,0.58015 v -1.85208 -2.11666 z"
       id="path883" />
    <path
       inkscape:connector-curvature="0"
       style="fill:#505050;fill-opacity:1;stroke:none;stroke-width:0.5291664;stroke-linecap:round;stroke-linejoin:round;stroke-miterlimit:4;stroke-dasharray:none;stroke-opacity:1;paint-order:normal"
       d="m 62.054098,253.80725 c -0.65756,-0.44925 -1.190625,0.13425 -1.190625,1.30323 -5e-6,0.80878 0.25532,1.68542 0.630335,2.29797 l -0.630335,1.67077 1.190625,0.81344 v -1.85208 -2.11666 z"
       id="path885" />
    <path
       id="path889"
       d="m 70.180728,253.80725 c 0.65756,-0.44925 1.190625,0.13425 1.190625,1.30323 5e-6,0.80878 -0.25532,1.68542 -0.630335,2.29797 l 0.630335,1.67077 -1.190625,0.81344 v -1.85208 -2.11666 z"
       style="fill:#505050;fill-opacity:1;stroke:none;stroke-width:0.5291664;stroke-linecap:round;stroke-linejoin:round;stroke-miterlimit:4;stroke-dasharray:none;stroke-opacity:1;paint-order:normal"
       inkscape:connector-curvature="0" />
    <path
       id="path891"
       d="m 5.3914817,281.68062 c -0.3108449,-0.66511 -0.5628351,-0.20993 -0.5628351,1.01662 -5e-6,0.84862 0.120695,1.84365 0.2979751,2.59685 l -0.2979751,1.56734 0.5628351,1.20429 v -1.9433 -2.2209 z"
       style="fill:#505050;fill-opacity:1;stroke:none;stroke-width:0.5291664;stroke-linecap:round;stroke-linejoin:round;stroke-miterlimit:4;stroke-dasharray:none;stroke-opacity:1;paint-order:normal"
       inkscape:connector-curvature="0" />
    <path
       inkscape:connector-curvature="0"
       style="fill:#505050;fill-opacity:1;stroke:none;stroke-width:0.5291664;stroke-linecap:round;stroke-linejoin:round;stroke-miterlimit:4;stroke-dasharray:none;stroke-opacity:1;paint-order:normal"
       d="m 21.034376,281.68062 c 0.310845,-0.66511 0.562836,-0.20993 0.562836,1.01662 5e-6,0.84862 -0.120695,1.84365 -0.297976,2.59685 l 0.297976,1.56734 -0.562836,1.20429 v -1.9433 -2.2209 z"
       id="path893" />
  </g>
</svg>
