<?xml version="1.0" encoding="UTF-8" standalone="no"?>
<!-- Created with Inkscape (http://www.inkscape.org/) -->

<svg
   xmlns:dc="http://purl.org/dc/elements/1.1/"
   xmlns:cc="http://creativecommons.org/ns#"
   xmlns:rdf="http://www.w3.org/1999/02/22-rdf-syntax-ns#"
   xmlns:svg="http://www.w3.org/2000/svg"
   xmlns="http://www.w3.org/2000/svg"
   xmlns:sodipodi="http://sodipodi.sourceforge.net/DTD/sodipodi-0.dtd"
   xmlns:inkscape="http://www.inkscape.org/namespaces/inkscape"
   width="420"
   height="90"
   viewBox="0 0 111.125 23.812501"
   version="1.1"
   id="svg8"
   inkscape:version="0.92.5 (2060ec1f9f, 2020-04-08)"
   sodipodi:docname="key1.svg"
   inkscape:export-filename="/home/victor/Projects/sokoadventure-2/data/img/sprite/key1.png"
   inkscape:export-xdpi="96"
   inkscape:export-ydpi="96">
  <defs
     id="defs2" />
  <sodipodi:namedview
     id="base"
     pagecolor="#ffffff"
     bordercolor="#666666"
     borderopacity="1.0"
     inkscape:pageopacity="0.0"
     inkscape:pageshadow="2"
     inkscape:zoom="1"
     inkscape:cx="596.08325"
     inkscape:cy="59.918647"
     inkscape:document-units="px"
     inkscape:current-layer="layer1"
     showgrid="false"
     units="px"
     inkscape:pagecheckerboard="true"
     inkscape:showpageshadow="false"
     inkscape:window-width="1920"
     inkscape:window-height="1015"
     inkscape:window-x="0"
     inkscape:window-y="0"
     inkscape:window-maximized="1"
     inkscape:snap-global="false" />
  <metadata
     id="metadata5">
    <rdf:RDF>
      <cc:Work
         rdf:about="">
        <dc:format>image/svg+xml</dc:format>
        <dc:type
           rdf:resource="http://purl.org/dc/dcmitype/StillImage" />
        <dc:title></dc:title>
      </cc:Work>
    </rdf:RDF>
  </metadata>
  <g
     inkscape:label="Layer 1"
     inkscape:groupmode="layer"
     id="layer1"
     transform="translate(0,-273.18748)"
     style="display:none"
     sodipodi:insensitive="true">
    <ellipse
       style="fill:none;fill-opacity:1;stroke:#000000;stroke-width:0.13230604;stroke-linecap:butt;stroke-linejoin:round;stroke-miterlimit:4;stroke-dasharray:none;stroke-opacity:0.30434798;paint-order:normal"
       id="path812"
       cx="71.428871"
       cy="289.06247"
       rx="7.8730679"
       ry="7.8713498" />
    <ellipse
       cy="281.12497"
       cx="71.428871"
       id="circle814"
       style="fill:none;fill-opacity:1;stroke:#000000;stroke-width:0.13230604;stroke-linecap:butt;stroke-linejoin:round;stroke-miterlimit:4;stroke-dasharray:none;stroke-opacity:0.30434798;paint-order:normal"
       rx="7.8730679"
       ry="7.8713498" />
    <path
       style="fill:none;fill-opacity:1;stroke:#000000;stroke-width:0.13230604;stroke-linecap:butt;stroke-linejoin:round;stroke-miterlimit:4;stroke-dasharray:none;stroke-opacity:0.30434798;paint-order:normal"
       d="m 64.614366,277.15623 13.629011,15.87499"
       id="path816"
       inkscape:connector-curvature="0"
       sodipodi:nodetypes="cc" />
    <ellipse
       cy="289.06247"
       cx="87.307327"
       id="circle818"
       style="fill:none;fill-opacity:1;stroke:#000000;stroke-width:0.13230604;stroke-linecap:butt;stroke-linejoin:round;stroke-miterlimit:4;stroke-dasharray:none;stroke-opacity:0.30434798;paint-order:normal"
       rx="7.8730679"
       ry="7.8713498" />
    <ellipse
       style="fill:none;fill-opacity:1;stroke:#000000;stroke-width:0.13230604;stroke-linecap:butt;stroke-linejoin:round;stroke-miterlimit:4;stroke-dasharray:none;stroke-opacity:0.30434798;paint-order:normal"
       id="circle820"
       cx="87.307327"
       cy="281.12497"
       rx="7.8730679"
       ry="7.8713498" />
    <path
       sodipodi:nodetypes="cc"
       inkscape:connector-curvature="0"
       id="path822"
       d="m 83.337712,274.31196 7.939227,21.56353"
       style="fill:none;fill-opacity:1;stroke:#000000;stroke-width:0.13230604;stroke-linecap:butt;stroke-linejoin:round;stroke-miterlimit:4;stroke-dasharray:none;stroke-opacity:0.30434798;paint-order:normal" />
    <ellipse
       style="fill:none;fill-opacity:1;stroke:#000000;stroke-width:0.13230604;stroke-linecap:butt;stroke-linejoin:round;stroke-miterlimit:4;stroke-dasharray:none;stroke-opacity:0.30434798;paint-order:normal"
       id="circle824"
       cx="103.18578"
       cy="289.06247"
       rx="7.8730679"
       ry="7.8713498" />
    <ellipse
       cy="281.12497"
       cx="103.18578"
       id="circle826"
       style="fill:none;fill-opacity:1;stroke:#000000;stroke-width:0.13230604;stroke-linecap:butt;stroke-linejoin:round;stroke-miterlimit:4;stroke-dasharray:none;stroke-opacity:0.30434798;paint-order:normal"
       rx="7.8730679"
       ry="7.8713498" />
    <path
       style="fill:none;fill-opacity:1;stroke:#000000;stroke-width:0.13230604;stroke-linecap:butt;stroke-linejoin:round;stroke-miterlimit:4;stroke-dasharray:none;stroke-opacity:0.30434798;paint-order:normal"
       d="M 103.18578,296.93382 V 273.25363"
       id="path828"
       inkscape:connector-curvature="0"
       sodipodi:nodetypes="cc" />
    <ellipse
       cy="289.06247"
       cx="7.9150438"
       id="circle1617"
       style="fill:none;fill-opacity:1;stroke:#000000;stroke-width:0.13230604;stroke-linecap:butt;stroke-linejoin:round;stroke-miterlimit:4;stroke-dasharray:none;stroke-opacity:0.30434798;paint-order:normal"
       rx="7.8730679"
       ry="7.8713498" />
    <ellipse
       style="fill:none;fill-opacity:1;stroke:#000000;stroke-width:0.13230604;stroke-linecap:butt;stroke-linejoin:round;stroke-miterlimit:4;stroke-dasharray:none;stroke-opacity:0.30434798;paint-order:normal"
       id="circle1619"
       cx="7.9150438"
       cy="281.12497"
       rx="7.8730679"
       ry="7.8713498" />
    <path
       sodipodi:nodetypes="cc"
       inkscape:connector-curvature="0"
       id="path1621"
       d="m 0.04197666,281.12498 15.74613634,7.9375"
       style="fill:none;fill-opacity:1;stroke:#000000;stroke-width:0.13230604;stroke-linecap:butt;stroke-linejoin:round;stroke-miterlimit:4;stroke-dasharray:none;stroke-opacity:0.30434798;paint-order:normal" />
    <ellipse
       style="fill:none;fill-opacity:1;stroke:#000000;stroke-width:0.13230604;stroke-linecap:butt;stroke-linejoin:round;stroke-miterlimit:4;stroke-dasharray:none;stroke-opacity:0.30434798;paint-order:normal"
       id="circle1623"
       cx="23.793499"
       cy="289.06247"
       rx="7.8730679"
       ry="7.8713498" />
    <ellipse
       cy="281.12497"
       cx="23.793499"
       id="circle1625"
       style="fill:none;fill-opacity:1;stroke:#000000;stroke-width:0.13230604;stroke-linecap:butt;stroke-linejoin:round;stroke-miterlimit:4;stroke-dasharray:none;stroke-opacity:0.30434798;paint-order:normal"
       rx="7.8730679"
       ry="7.8713498" />
    <path
       style="fill:none;fill-opacity:1;stroke:#000000;stroke-width:0.13230604;stroke-linecap:butt;stroke-linejoin:round;stroke-miterlimit:4;stroke-dasharray:none;stroke-opacity:0.30434798;paint-order:normal"
       d="M 16.979002,285.09373 H 30.608009"
       id="path1627"
       inkscape:connector-curvature="0"
       sodipodi:nodetypes="cc" />
    <ellipse
       cy="289.06247"
       cx="39.671959"
       id="circle1629"
       style="fill:none;fill-opacity:1;stroke:#000000;stroke-width:0.13230604;stroke-linecap:butt;stroke-linejoin:round;stroke-miterlimit:4;stroke-dasharray:none;stroke-opacity:0.30434798;paint-order:normal"
       rx="7.8730679"
       ry="7.8713498" />
    <ellipse
       style="fill:none;fill-opacity:1;stroke:#000000;stroke-width:0.13230604;stroke-linecap:butt;stroke-linejoin:round;stroke-miterlimit:4;stroke-dasharray:none;stroke-opacity:0.30434798;paint-order:normal"
       id="circle1631"
       cx="39.671959"
       cy="281.12497"
       rx="7.8730679"
       ry="7.8713498" />
    <path
       sodipodi:nodetypes="cc"
       inkscape:connector-curvature="0"
       id="path1633"
       d="m 35.702343,287.93799 7.939229,-5.68853"
       style="fill:none;fill-opacity:1;stroke:#000000;stroke-width:0.13230604;stroke-linecap:butt;stroke-linejoin:round;stroke-miterlimit:4;stroke-dasharray:none;stroke-opacity:0.30434798;paint-order:normal" />
    <ellipse
       style="fill:none;fill-opacity:1;stroke:#000000;stroke-width:0.13230604;stroke-linecap:butt;stroke-linejoin:round;stroke-miterlimit:4;stroke-dasharray:none;stroke-opacity:0.30434798;paint-order:normal"
       id="circle1635"
       cx="55.550411"
       cy="289.06247"
       rx="7.8730679"
       ry="7.8713498" />
    <ellipse
       cy="281.12497"
       cx="55.550411"
       id="circle1637"
       style="fill:none;fill-opacity:1;stroke:#000000;stroke-width:0.13230604;stroke-linecap:butt;stroke-linejoin:round;stroke-miterlimit:4;stroke-dasharray:none;stroke-opacity:0.30434798;paint-order:normal"
       rx="7.8730679"
       ry="7.8713498" />
    <path
       style="fill:none;fill-opacity:1;stroke:#000000;stroke-width:0.13230604;stroke-linecap:butt;stroke-linejoin:round;stroke-miterlimit:4;stroke-dasharray:none;stroke-opacity:0.30434798;paint-order:normal"
       d="m 55.550413,289.06248 v -7.9375"
       id="path1639"
       inkscape:connector-curvature="0"
       sodipodi:nodetypes="cc" />
  </g>
  <g
     inkscape:groupmode="layer"
     id="layer2"
     inkscape:label="Layer 2"
     transform="translate(0,-23.8125)">
    <path
       id="path1717"
       d="m 84.109229,27.02871 -1.136787,0.408755 c -0.477279,0.137989 0.764026,1.101749 1.484643,2.643047 0.517783,1.106847 0.352002,2.313441 0.87367,2.667069 l 4.296795,9.666047 1.914357,1.637711 1.072013,-0.469196 -0.473717,-1.146487 C 91.499487,41.980341 91.745812,42.040824 91.902956,41.893549 L 91.546828,40.977418 90.763243,40.49127 86.883048,32.080451 C 86.903802,31.500126 86.639225,30.552573 86.184746,29.579712 85.51473,28.146631 84.61759,27.043966 84.109229,27.02871 Z"
       style="fill:#fdfdfd;fill-opacity:1;stroke:#808080;stroke-width:0.52922416;stroke-linecap:butt;stroke-linejoin:round;stroke-miterlimit:4;stroke-dasharray:none;stroke-opacity:1;paint-order:normal"
       inkscape:connector-curvature="0"
       sodipodi:nodetypes="cccccccccccccc" />
    <path
       style="fill:#fffef8;fill-opacity:1;stroke:#808080;stroke-width:0.52922416;stroke-linecap:butt;stroke-linejoin:round;stroke-miterlimit:4;stroke-dasharray:none;stroke-opacity:1;paint-order:normal"
       d="m 78.521372,39.568338 -1.240609,0.013 -0.751243,0.573023 0.427367,0.603977 0.973453,-0.03897 z"
       id="path1698"
       inkscape:connector-curvature="0"
       sodipodi:nodetypes="cccccc" />
    <path
       id="path1696"
       d="m 66.024268,28.120161 c -0.183745,0.0086 -0.339864,0.05658 -0.463121,0.142301 l -0.974412,1.135885 c -0.435415,0.507563 0.980183,1.395142 1.595652,2.078508 0.963875,1.069573 1.281364,2.072013 2.086064,2.05266 l 7.829715,7.384395 2.528529,0.282518 0.674333,-0.867682 -0.75955,-0.759856 -0.721922,0.896888 c -0.111425,0.138432 -0.747924,-3.1e-5 -0.890379,-0.155896 -0.142457,-0.155864 0.417875,-0.140023 0.462965,-0.272716 l 0.721877,-0.896874 -0.664964,-0.662514 -1.163229,0.03903 -5.956746,-5.920218 c 0.05622,-0.707888 -0.452784,-1.76356 -1.30925,-2.715375 -0.977202,-1.08502 -2.191687,-1.799001 -2.995562,-1.76105 z"
       style="display:inline;fill:#fdfdfd;fill-opacity:1;stroke:#808080;stroke-width:0.52922416;stroke-linecap:butt;stroke-linejoin:round;stroke-miterlimit:4;stroke-dasharray:none;stroke-opacity:1;paint-order:normal"
       inkscape:connector-curvature="0"
       sodipodi:nodetypes="ccsccccccssscccccc" />
    <path
       style="fill:#fdfdfd;fill-opacity:1;stroke:#808080;stroke-width:0.52922416;stroke-linecap:butt;stroke-linejoin:round;stroke-miterlimit:4;stroke-dasharray:none;stroke-opacity:1;paint-order:normal"
       d="m 54.822649,30.910768 h 1.442295 v 1.695157 l -0.0745,0.715934 v 4.369537 h -1.279868 v -4.369537 l -0.08792,-0.715934 z"
       id="rect1579"
       inkscape:connector-curvature="0"
       sodipodi:nodetypes="ccccccccc" />
    <path
       id="path1528"
       d="m 42.770894,30.99678 -0.238281,0.230476 c 0.104217,0.231365 6.51e-4,0.32133 -0.194862,0.194562 l -0.296687,0.296364 -0.31297,1.540216 -2.518739,1.827277 c -0.288322,-0.121271 -0.852316,-0.134597 -1.628454,0.407912 -1.802063,1.310859 -2.058843,2.655985 -1.891729,2.902413 l 0.963241,0.86544 c 0.342568,0.307786 0.60065,-1.85764 1.16525,-2.252368 0.922498,-0.645284 2.498003,-0.747902 2.606384,-1.110397 l 2.773981,-1.9884 0.485067,-2.268656 z"
       style="fill:#fdfdfd;fill-opacity:1;stroke:#808080;stroke-width:0.52922416;stroke-linecap:butt;stroke-linejoin:round;stroke-miterlimit:4;stroke-dasharray:none;stroke-opacity:1;paint-order:normal"
       inkscape:connector-curvature="0"
       sodipodi:nodetypes="ccccccccsccccc" />
    <path
       id="path1518"
       d="m 30.641003,33.210597 -0.785827,0.0033 0.313452,0.957019 c 0.04761,0.145355 -0.192937,0.551064 -0.369743,0.551064 -0.176808,0 -0.08215,-0.406316 -0.124207,-0.530727 l -0.32475,-0.960561 h -0.690289 l -0.85879,1.464776 -5.22113,0.01969 0.212683,0.509226 -0.370951,-0.794275 c -0.110486,-0.543495 -1.419318,-0.735884 -2.923198,-0.429689 -1.503904,0.306181 -2.63327,0.99499 -2.522359,1.538406 l 0.437724,1.022805 c 0.210325,0.491457 1.602292,-1.335786 2.354107,-1.488862 0.723739,-0.147632 2.411292,1.135029 2.883876,0.845654 l 7.056491,0.155218 1.218829,-2.004661 z"
       style="fill:#fdfdfd;fill-opacity:1;stroke:#808080;stroke-width:0.52922416;stroke-linecap:butt;stroke-linejoin:round;stroke-miterlimit:4;stroke-dasharray:none;stroke-opacity:1;paint-order:normal"
       inkscape:connector-curvature="0"
       sodipodi:nodetypes="ccsssccccccccsccccc" />
    <path
       inkscape:connector-curvature="0"
       id="path1429"
       d="m 3.6113995,30.938182 c -1.8616445,-8e-6 -3.37084417,0.613211 -3.37094243,1.369684 l 0.0107382,1.286 c 0.005497,0.658305 2.42938203,0.08369 3.36020433,0.08368 0.5712791,-4.92e-4 1.1833954,1.067983 1.6825811,0.955098 l 8.2675083,4.059514 2.024416,-1.105342 0.0037,-1.307363 -0.687453,-0.300757 -0.0087,1.301032 c -10e-4,0.151283 -0.411337,0.31202 -0.54303,0.253206 -0.131693,-0.05882 0.01579,-0.380723 0.01768,-0.55729 l 0.01315,-1.226649 -0.642144,-0.336155 -1.23468,0.840257 -5.4800981,-2.76195 -0.042039,-1.183284 C 6.9822402,31.551393 5.4730402,30.938174 3.611396,30.938182 Z"
       style="fill:#fdfdfd;fill-opacity:1;stroke:#808080;stroke-width:0.52922368;stroke-linecap:butt;stroke-linejoin:round;stroke-miterlimit:4;stroke-dasharray:none;stroke-opacity:1;paint-order:normal"
       sodipodi:nodetypes="ccsccccccscscccccc" />
    <path
       style="fill:#cccccc;fill-opacity:1;stroke:#808080;stroke-width:0.52922368;stroke-linecap:butt;stroke-linejoin:round;stroke-miterlimit:4;stroke-dasharray:none;stroke-opacity:1;paint-order:normal"
       d="m 3.6113995,32.261098 a 3.3709044,1.3697556 0 0 0 -3.37094243,1.369683 3.3709044,1.3697556 0 0 0 3.37094243,1.369684 3.3709044,1.3697556 0 0 0 1.6320647,-0.172858 l 8.2843468,4.2447 2.061849,-1.469935 -0.687452,-0.300757 c 0,0 -0.389389,0.240877 -0.652775,0.123248 -0.263385,-0.117632 0.131871,-0.352949 0.131871,-0.352949 L 13.73916,36.735758 12.50448,37.576017 6.3508283,34.426856 A 3.3709044,1.3697556 0 0 0 6.9823417,33.630781 3.3709044,1.3697556 0 0 0 3.6113995,32.261098 Z"
       id="path837"
       inkscape:connector-curvature="0" />
    <ellipse
       style="fill:#fdfdfd;fill-opacity:1;stroke:#808080;stroke-width:0.52922416;stroke-linecap:butt;stroke-linejoin:round;stroke-miterlimit:4;stroke-dasharray:none;stroke-opacity:1;paint-order:normal"
       id="path1431"
       cx="3.5847178"
       cy="33.631641"
       rx="1.6145086"
       ry="0.51035833" />
    <path
       style="fill:#cccccc;fill-opacity:1;stroke:#808080;stroke-width:0.52922416;stroke-linecap:butt;stroke-linejoin:round;stroke-miterlimit:4;stroke-dasharray:none;stroke-opacity:1;paint-order:normal"
       d="m 30.942424,34.136638 -0.690288,0.0033 c 0,0 -0.168431,0.505137 -0.522046,0.505137 -0.353615,0 0.0168,-0.488342 0.0168,-0.488342 h -0.690289 l -0.858791,1.464768 -5.426431,0.0155 a 1.004109,2.7785928 78.492634 0 0 0.04703,-0.280861 1.004109,2.7785928 78.492634 0 0 -2.923198,-0.429689 1.004109,2.7785928 78.492634 0 0 -2.522359,1.538407 1.004109,2.7785928 78.492634 0 0 2.923198,0.42943 1.004109,2.7785928 78.492634 0 0 1.868768,-0.682645 h 7.605843 z"
       id="path1506"
       inkscape:connector-curvature="0" />
    <ellipse
       style="fill:#fdfdfd;fill-opacity:1;stroke:#808080;stroke-width:0.52924091;stroke-linecap:butt;stroke-linejoin:round;stroke-miterlimit:4;stroke-dasharray:none;stroke-opacity:1;paint-order:normal"
       id="path1520"
       cx="14.072384"
       cy="38.554024"
       rx="1.2817519"
       ry="0.3514182"
       transform="matrix(0.98856971,-0.15076446,0.16187792,0.98681079,0,0)" />
    <path
       style="fill:#cccccc;fill-opacity:1;stroke:#808080;stroke-width:0.52922416;stroke-linecap:butt;stroke-linejoin:round;stroke-miterlimit:4;stroke-dasharray:none;stroke-opacity:1;paint-order:normal"
       d="m 43.697136,31.658237 -0.23828,0.230477 c 0,0 -0.15135,0.431543 -0.286867,0.550095 -0.135518,0.118552 0.092,-0.355534 0.092,-0.355534 l -0.296686,0.296364 -0.312969,1.540216 -2.451385,1.759937 c -0.237905,-0.239522 -0.745323,-0.332207 -1.54436,0.213853 -1.128508,0.788969 -2.252844,1.881467 -2.127373,3.045966 -0.0013,0.04469 0.131436,0.936747 1.396154,0.03721 1.797102,-1.323131 2.522438,-2.685055 2.563059,-3.013678 l 2.738156,-2.012279 z"
       id="path1522"
       inkscape:connector-curvature="0"
       sodipodi:nodetypes="ccccccccccccc" />
    <path
       inkscape:connector-curvature="0"
       id="path1551"
       d="m 39.129499,35.146874 0.924565,0.483437"
       style="fill:#f6ca13;fill-opacity:1;stroke:#808080;stroke-width:0.26461208;stroke-linecap:butt;stroke-linejoin:round;stroke-miterlimit:4;stroke-dasharray:none;stroke-opacity:1;paint-order:normal"
       sodipodi:nodetypes="cc" />
    <path
       style="fill:#f6ca13;fill-opacity:1;stroke:#808080;stroke-width:0.26461208;stroke-linecap:butt;stroke-linejoin:round;stroke-miterlimit:4;stroke-dasharray:none;stroke-opacity:1;paint-order:normal"
       d="m 41.672266,33.277566 0.907626,0.585052"
       id="path1559"
       inkscape:connector-curvature="0" />
    <path
       inkscape:connector-curvature="0"
       id="path1561"
       d="m 42.009043,31.7624 0.907626,0.585052"
       style="fill:#f6ca13;fill-opacity:1;stroke:#808080;stroke-width:0.26461208;stroke-linecap:butt;stroke-linejoin:round;stroke-miterlimit:4;stroke-dasharray:none;stroke-opacity:1;paint-order:normal" />
    <path
       style="fill:#f6ca13;fill-opacity:1;stroke:#808080;stroke-width:0.26461208;stroke-linecap:butt;stroke-linejoin:round;stroke-miterlimit:4;stroke-dasharray:none;stroke-opacity:1;paint-order:normal"
       d="m 42.244786,31.493037 0.907626,0.585052"
       id="path1563"
       inkscape:connector-curvature="0" />
    <path
       inkscape:connector-curvature="0"
       id="path1565"
       d="m 42.463691,31.257345 0.907627,0.585052"
       style="fill:#f6ca13;fill-opacity:1;stroke:#808080;stroke-width:0.26461208;stroke-linecap:butt;stroke-linejoin:round;stroke-miterlimit:4;stroke-dasharray:none;stroke-opacity:1;paint-order:normal" />
    <path
       inkscape:connector-curvature="0"
       id="path1569"
       d="m 28.685455,33.285208 0.34633,0.919368"
       style="fill:#f6ca13;fill-opacity:1;stroke:#808080;stroke-width:0.26461208;stroke-linecap:butt;stroke-linejoin:round;stroke-miterlimit:4;stroke-dasharray:none;stroke-opacity:1;paint-order:normal"
       sodipodi:nodetypes="cc" />
    <path
       sodipodi:nodetypes="cc"
       style="fill:#f6ca13;fill-opacity:1;stroke:#808080;stroke-width:0.26461208;stroke-linecap:butt;stroke-linejoin:round;stroke-miterlimit:4;stroke-dasharray:none;stroke-opacity:1;paint-order:normal"
       d="m 27.801714,34.729928 0.346331,0.919368"
       id="path1571"
       inkscape:connector-curvature="0" />
    <path
       style="fill:#f6ca13;fill-opacity:1;stroke:#808080;stroke-width:0.26461208;stroke-linecap:butt;stroke-linejoin:round;stroke-miterlimit:4;stroke-dasharray:none;stroke-opacity:1;paint-order:normal"
       d="m 12.491498,36.210468 v 1.313383"
       id="path1573"
       inkscape:connector-curvature="0" />
    <ellipse
       style="fill:#f6ca13;fill-opacity:1;stroke:#808080;stroke-width:0.52922416;stroke-linecap:butt;stroke-linejoin:round;stroke-miterlimit:4;stroke-dasharray:none;stroke-opacity:1;paint-order:normal"
       id="path1575"
       cx="2.8486481"
       cy="53.485771"
       rx="1.2819806"
       ry="0.20178992"
       transform="matrix(0.7334231,-0.67977243,0.67993198,0.73327519,0,0)" />
    <path
       style="fill:#fdfdfd;fill-opacity:1;stroke:#808080;stroke-width:0.52922416;stroke-linecap:butt;stroke-linejoin:round;stroke-miterlimit:4;stroke-dasharray:none;stroke-opacity:1;paint-order:normal"
       d="m 54.798659,36.085667 h 1.510494 v 5.456155 h -1.510494 z"
       id="rect1577"
       inkscape:connector-curvature="0"
       sodipodi:nodetypes="ccccc" />
    <path
       style="fill:#f6ca13;fill-opacity:1;stroke:#808080;stroke-width:0.26461208;stroke-linecap:butt;stroke-linejoin:round;stroke-miterlimit:4;stroke-dasharray:none;stroke-opacity:1;paint-order:normal"
       d="m 54.954653,33.308881 h 1.195561"
       id="path1588"
       inkscape:connector-curvature="0" />
    <path
       inkscape:connector-curvature="0"
       id="path1590"
       d="m 54.954653,32.596718 h 1.195561"
       style="fill:#f6ca13;fill-opacity:1;stroke:#808080;stroke-width:0.26461208;stroke-linecap:butt;stroke-linejoin:round;stroke-miterlimit:4;stroke-dasharray:none;stroke-opacity:1;paint-order:normal" />
    <rect
       style="fill:#cccccc;fill-opacity:1;stroke:#808080;stroke-width:0.26461208;stroke-linecap:butt;stroke-linejoin:round;stroke-miterlimit:4;stroke-dasharray:none;stroke-opacity:1;paint-order:normal"
       id="rect1596"
       width="1.1870903"
       height="0.44181344"
       x="54.948647"
       y="31.541624" />
    <path
       style="display:inline;fill:#cccccc;fill-opacity:1;stroke:#808080;stroke-width:0.52922416;stroke-linecap:butt;stroke-linejoin:round;stroke-miterlimit:4;stroke-dasharray:none;stroke-opacity:1;paint-order:normal"
       d="m 65.316224,29.011052 a 3.3367651,1.4836843 46.208895 0 0 -0.463121,0.142301 3.3367651,1.4836843 46.208895 0 0 0.998862,3.330597 3.3367651,1.4836843 46.208895 0 0 2.964551,1.760414 l 7.141169,6.955764 2.635298,0.01951 -0.759554,-0.759856 c 0,0 -0.664846,0.116834 -0.949758,-0.194894 -0.284912,-0.311729 0.522304,-0.233703 0.522304,-0.233703 l -0.664964,-0.66252 -1.163229,0.03902 -5.956746,-5.920214 a 3.3367651,1.4836843 46.208895 0 0 -1.309251,-2.715376 3.3367651,1.4836843 46.208895 0 0 -2.995561,-1.76105 z"
       id="path1641"
       inkscape:connector-curvature="0" />
    <path
       inkscape:connector-curvature="0"
       id="path1702"
       d="M 77.461533,38.497081 76.69124,39.414888"
       style="fill:#f6ca13;fill-opacity:1;stroke:#808080;stroke-width:0.26461208;stroke-linecap:butt;stroke-linejoin:round;stroke-miterlimit:4;stroke-dasharray:none;stroke-opacity:1;paint-order:normal"
       sodipodi:nodetypes="cc" />
    <path
       inkscape:connector-curvature="0"
       id="path1704"
       d="m 13.754413,35.43605 v 1.313383"
       style="fill:#f6ca13;fill-opacity:1;stroke:#808080;stroke-width:0.26461208;stroke-linecap:butt;stroke-linejoin:round;stroke-miterlimit:4;stroke-dasharray:none;stroke-opacity:1;paint-order:normal" />
    <path
       sodipodi:nodetypes="cc"
       style="fill:#f6ca13;fill-opacity:1;stroke:#808080;stroke-width:0.26461208;stroke-linecap:butt;stroke-linejoin:round;stroke-miterlimit:4;stroke-dasharray:none;stroke-opacity:1;paint-order:normal"
       d="m 76.303115,38.555646 -0.770293,0.878841"
       id="path1706"
       inkscape:connector-curvature="0" />
    <path
       inkscape:connector-curvature="0"
       id="path1708"
       d="m 70.310821,32.573682 -0.699067,0.99574"
       style="fill:#f6ca13;fill-opacity:1;stroke:#808080;stroke-width:0.26461208;stroke-linecap:butt;stroke-linejoin:round;stroke-miterlimit:4;stroke-dasharray:none;stroke-opacity:1;paint-order:normal"
       sodipodi:nodetypes="cc" />
    <ellipse
       style="fill:#fdfdfd;fill-opacity:1;stroke:#808080;stroke-width:0.53355265;stroke-linecap:butt;stroke-linejoin:round;stroke-miterlimit:4;stroke-dasharray:none;stroke-opacity:1;paint-order:normal"
       id="path1710"
       cx="30.388826"
       cy="62.342915"
       rx="0.43288279"
       ry="1.779689"
       transform="matrix(0.86099722,-0.50860966,0.65454958,0.75601908,0,0)" />
    <path
       style="fill:#cccccc;fill-opacity:1;stroke:#808080;stroke-width:0.52922416;stroke-linecap:butt;stroke-linejoin:round;stroke-miterlimit:4;stroke-dasharray:none;stroke-opacity:1;paint-order:normal"
       d="m 82.976357,27.474721 a 3.0836617,0.88754843 64.130588 0 0 -0.09278,0.01099 3.0836617,0.88754843 64.130588 0 0 0.440636,3.040813 3.0836617,0.88754843 64.130588 0 0 1.710602,2.403469 l 4.369162,9.611434 2.077072,1.486728 -0.473718,-1.146486 c 0,0 -0.640839,-0.35514 -0.759551,-0.672954 -0.118716,-0.317817 0.522304,0.130846 0.522304,0.130846 l -0.356132,-0.91613 -0.783585,-0.486148 -3.880194,-8.41082 A 3.0836617,0.88754843 64.130588 0 0 85.05187,30.025725 3.0836617,0.88754843 64.130588 0 0 82.976353,27.474722 Z"
       id="path1712"
       inkscape:connector-curvature="0" />
    <path
       style="fill:#d1ab0a;fill-opacity:1;stroke:#808080;stroke-width:0.26461208;stroke-linecap:butt;stroke-linejoin:round;stroke-miterlimit:4;stroke-dasharray:none;stroke-opacity:1;paint-order:normal"
       d="m 85.730462,32.504882 1.213649,-0.448754"
       id="path1719"
       inkscape:connector-curvature="0"
       sodipodi:nodetypes="cc" />
    <path
       sodipodi:nodetypes="cc"
       inkscape:connector-curvature="0"
       id="path1721"
       d="m 89.613827,40.861001 1.213655,-0.448754"
       style="fill:#d1ab0a;fill-opacity:1;stroke:#808080;stroke-width:0.26461208;stroke-linecap:butt;stroke-linejoin:round;stroke-miterlimit:4;stroke-dasharray:none;stroke-opacity:1;paint-order:normal" />
    <path
       style="fill:#d1ab0a;fill-opacity:1;stroke:#808080;stroke-width:0.26461208;stroke-linecap:butt;stroke-linejoin:round;stroke-miterlimit:4;stroke-dasharray:none;stroke-opacity:1;paint-order:normal"
       d="m 90.350328,41.440921 1.213654,-0.448754"
       id="path1723"
       inkscape:connector-curvature="0"
       sodipodi:nodetypes="cc" />
    <path
       sodipodi:nodetypes="cc"
       inkscape:connector-curvature="0"
       id="path1725"
       d="m 90.727049,42.305081 1.213655,-0.448753"
       style="fill:#d1ab0a;fill-opacity:1;stroke:#808080;stroke-width:0.52922416;stroke-linecap:butt;stroke-linejoin:round;stroke-miterlimit:4;stroke-dasharray:none;stroke-opacity:1;paint-order:normal" />
    <path
       style="fill:#d1ab0a;fill-opacity:1;stroke:#808080;stroke-width:0.52922416;stroke-linecap:butt;stroke-linejoin:round;stroke-miterlimit:4;stroke-dasharray:none;stroke-opacity:1;paint-order:normal"
       d="M 91.011807,42.805605 92.22546,42.356852"
       id="path1727"
       inkscape:connector-curvature="0"
       sodipodi:nodetypes="cc" />
    <ellipse
       style="fill:#cccccc;fill-opacity:1;stroke:#808080;stroke-width:0.53239155;stroke-linecap:butt;stroke-linejoin:round;stroke-miterlimit:4;stroke-dasharray:none;stroke-opacity:1;paint-order:normal"
       id="path1729"
       cx="64.40477"
       cy="52.981541"
       rx="0.32721242"
       ry="1.7603894"
       transform="matrix(0.96110877,-0.27617012,0.42049674,0.90729405,0,0)" />
    <path
       sodipodi:nodetypes="ccccccccc"
       inkscape:connector-curvature="0"
       id="path1731"
       d="m 102.43422,45.080813 h 1.44229 v -3.331325 l -0.0744,-1.406955 v -8.587022 h -1.27987 v 8.587022 l -0.088,1.406955 z"
       style="fill:#fdfdfd;fill-opacity:1;stroke:#808080;stroke-width:0.52922416;stroke-linecap:butt;stroke-linejoin:round;stroke-miterlimit:4;stroke-dasharray:none;stroke-opacity:1;paint-order:normal" />
    <path
       sodipodi:nodetypes="ccccc"
       inkscape:connector-curvature="0"
       id="path1733"
       d="m 102.41023,32.942688 h 1.51049 v -6.435463 h -1.51049 z"
       style="fill:#fdfdfd;fill-opacity:1;stroke:#808080;stroke-width:0.52922416;stroke-linecap:butt;stroke-linejoin:round;stroke-miterlimit:4;stroke-dasharray:none;stroke-opacity:1;paint-order:normal" />
    <path
       inkscape:connector-curvature="0"
       id="path1735"
       d="m 102.56623,40.368039 h 1.19555"
       style="fill:#f6ca13;fill-opacity:1;stroke:#808080;stroke-width:0.26461208;stroke-linecap:butt;stroke-linejoin:round;stroke-miterlimit:4;stroke-dasharray:none;stroke-opacity:1;paint-order:normal" />
    <path
       style="fill:#f6ca13;fill-opacity:1;stroke:#808080;stroke-width:0.26461208;stroke-linecap:butt;stroke-linejoin:round;stroke-miterlimit:4;stroke-dasharray:none;stroke-opacity:1;paint-order:normal"
       d="m 102.56623,41.767583 h 1.19555"
       id="path1737"
       inkscape:connector-curvature="0" />
    <rect
       y="-43.841057"
       x="102.56021"
       height="0.86825258"
       width="1.1870903"
       id="rect1739"
       style="fill:#cccccc;fill-opacity:1;stroke:#808080;stroke-width:0.26461208;stroke-linecap:butt;stroke-linejoin:round;stroke-miterlimit:4;stroke-dasharray:none;stroke-opacity:1;paint-order:normal"
       transform="scale(1,-1)" />
  </g>
</svg>
