<?xml version="1.0" encoding="UTF-8" standalone="no"?>
<!-- Created with Inkscape (http://www.inkscape.org/) -->

<svg
   xmlns:dc="http://purl.org/dc/elements/1.1/"
   xmlns:cc="http://creativecommons.org/ns#"
   xmlns:rdf="http://www.w3.org/1999/02/22-rdf-syntax-ns#"
   xmlns:svg="http://www.w3.org/2000/svg"
   xmlns="http://www.w3.org/2000/svg"
   xmlns:sodipodi="http://sodipodi.sourceforge.net/DTD/sodipodi-0.dtd"
   xmlns:inkscape="http://www.inkscape.org/namespaces/inkscape"
   width="180"
   height="240"
   viewBox="0 0 47.625 63.500002"
   version="1.1"
   id="svg8"
   inkscape:version="0.92.5 (2060ec1f9f, 2020-04-08)"
   sodipodi:docname="wall1.svg"
   inkscape:export-filename="/home/victor/Projects/sokoadventure-2/data/img/sprite/wall1.png"
   inkscape:export-xdpi="96"
   inkscape:export-ydpi="96">
  <defs
     id="defs2" />
  <sodipodi:namedview
     id="base"
     pagecolor="#ffffff"
     bordercolor="#666666"
     borderopacity="1.0"
     inkscape:pageopacity="0.0"
     inkscape:pageshadow="2"
     inkscape:zoom="1"
     inkscape:cx="78.269722"
     inkscape:cy="36.791297"
     inkscape:document-units="px"
     inkscape:current-layer="layer1"
     showgrid="false"
     units="px"
     inkscape:pagecheckerboard="true"
     inkscape:showpageshadow="false"
     inkscape:window-width="1920"
     inkscape:window-height="1015"
     inkscape:window-x="0"
     inkscape:window-y="0"
     inkscape:window-maximized="1"
     inkscape:snap-global="false" />
  <metadata
     id="metadata5">
    <rdf:RDF>
      <cc:Work
         rdf:about="">
        <dc:format>image/svg+xml</dc:format>
        <dc:type
           rdf:resource="http://purl.org/dc/dcmitype/StillImage" />
        <dc:title></dc:title>
      </cc:Work>
    </rdf:RDF>
  </metadata>
  <g
     inkscape:label="Layer 1"
     inkscape:groupmode="layer"
     id="layer1"
     transform="translate(0,-233.49999)">
    <path
       style="fill:#b0803f;fill-opacity:1;stroke:none;stroke-width:1.05833352;stroke-linecap:round;stroke-linejoin:round;stroke-miterlimit:4;stroke-dasharray:none;stroke-opacity:1"
       d="m 23.869589,271.04792 -4.460043,0.0803 v 18.26295 c 0,0 -2.652378,0.49869 -4.212859,3.04765 0,0 2.440563,-1.16558 4.50208,-0.47473 0,0 -1.532037,0.47442 -1.938606,3.18143 0,0 2.181144,-1.21555 4.042837,-1.36827 0,0 0.497208,1.40635 2.066591,2.69361 1.569384,-1.28726 2.066589,-2.69361 2.066589,-2.69361 1.861694,0.15272 4.042838,1.36827 4.042838,1.36827 -0.406567,-2.70701 -1.938604,-3.18143 -1.938604,-3.18143 2.061515,-0.69085 4.50208,0.47473 4.50208,0.47473 -1.560484,-2.54896 -4.212859,-3.04765 -4.212859,-3.04765 v -18.26293 z"
       id="path812"
       inkscape:connector-curvature="0" />
    <path
       style="fill:#000000;fill-opacity:0.09803922;stroke:none;stroke-width:1.05833352;stroke-linecap:round;stroke-linejoin:round;stroke-miterlimit:4;stroke-dasharray:none;stroke-opacity:1"
       d="m 26.241562,275.72866 -0.05764,13.20485 c 0,0 1.095112,0.17152 2.132587,0.62882 l 0.05764,-14.86265 z"
       id="path1492"
       inkscape:connector-curvature="0" />
    <path
       style="fill:#000000;fill-opacity:0.09803922;stroke:none;stroke-width:1.05833352;stroke-linecap:round;stroke-linejoin:round;stroke-miterlimit:4;stroke-dasharray:none;stroke-opacity:1"
       d="m 23.530875,296.31254 c 0,0 0.860359,-1.69213 1.239501,-3.74581 0,0 1.195758,-0.28925 2.304018,0.15906 0,0 -0.247903,-1.1136 -0.670789,-1.80781 0,0 3.222707,-0.5351 5.366319,0.78098 l -3.033137,0.26034 1.006186,2.87803 -3.762256,-1.07023 z"
       id="path1502"
       inkscape:connector-curvature="0"
       sodipodi:nodetypes="ccccccccc" />
    <path
       inkscape:connector-curvature="0"
       id="path1500"
       d="m 23.869589,271.04792 -4.460043,0.0803 v 18.26295 c 0,0 -2.652378,0.49869 -4.212859,3.04765 0,0 2.440563,-1.16558 4.50208,-0.47473 0,0 -1.532037,0.47442 -1.938606,3.18143 0,0 2.181144,-1.21555 4.042837,-1.36827 0,0 0.497208,1.40635 2.066591,2.69361 1.569384,-1.28726 2.066589,-2.69361 2.066589,-2.69361 1.861694,0.15272 4.042838,1.36827 4.042838,1.36827 -0.406567,-2.70701 -1.938604,-3.18143 -1.938604,-3.18143 2.061515,-0.69085 4.50208,0.47473 4.50208,0.47473 -1.560484,-2.54896 -4.212859,-3.04765 -4.212859,-3.04765 v -18.26293 z"
       style="fill:none;fill-opacity:1;stroke:#714e1f;stroke-width:1.05833352;stroke-linecap:round;stroke-linejoin:round;stroke-miterlimit:4;stroke-dasharray:none;stroke-opacity:1" />
    <path
       style="fill:none;fill-opacity:0.09803922;stroke:#714e1f;stroke-width:0.52916676;stroke-linecap:round;stroke-linejoin:round;stroke-miterlimit:4;stroke-dasharray:none;stroke-opacity:1"
       d="m 22.003776,281.13448 v -7.01373"
       id="path1504"
       inkscape:connector-curvature="0" />
    <path
       style="fill:#3fb03f;fill-opacity:1;stroke:none;stroke-width:1.05833352;stroke-linecap:round;stroke-linejoin:round;stroke-miterlimit:4;stroke-dasharray:none;stroke-opacity:1"
       d="m 24.787446,234.02926 c -3.638202,9.8e-4 -6.845788,2.4499 -7.894951,6.02623 -0.426059,-0.0699 -0.856595,-0.10692 -1.28801,-0.11078 -4.780165,-10e-5 -8.6553171,3.99083 -8.6553375,8.91393 0.00318,1.49695 0.3723477,2.96896 1.0734476,4.28025 -4.4054457,1.09374 -7.4893644,4.95174 -7.49342835,9.37435 -1.2129e-4,5.34824 4.45701195,9.68394 9.95526825,9.68404 1.466494,-0.004 2.91406,-0.32234 4.239207,-0.93339 2.212555,2.84319 5.555112,4.49784 9.088856,4.4992 3.404108,-0.002 6.637497,-1.53839 8.851708,-4.20641 1.387609,0.68406 2.920715,1.0423 4.476354,1.04597 5.498253,-9e-5 9.955386,-4.33578 9.95527,-9.68402 -0.0052,-3.69514 -2.1718,-7.06528 -5.58494,-8.68747 0.730502,-1.37074 1.114384,-2.91285 1.115484,-4.48106 -6.9e-5,-5.10214 -3.966231,-9.23814 -8.858609,-9.23797 -0.319808,0.004 -0.639198,0.0254 -0.956754,0.065 -0.868773,-3.83068 -4.192361,-6.54305 -8.023565,-6.54797 z"
       id="path1467"
       inkscape:connector-curvature="0"
       sodipodi:nodetypes="ccccccccccccccccc" />
    <path
       style="fill:#000000;fill-opacity:0.09803922;stroke:none;stroke-width:1.05833352;stroke-linecap:round;stroke-linejoin:round;stroke-miterlimit:4;stroke-dasharray:none;stroke-opacity:1"
       d="m 14.669681,256.40436 c 0,0 3.006949,0 4.144713,-2.09564 0,0 -0.162537,3.06285 2.275528,3.86887 0,0 -3.657098,-0.3224 -4.794862,2.01503 0,0 0.731422,-2.17624 -1.625379,-3.78826 z"
       id="path1480"
       inkscape:connector-curvature="0" />
    <path
       inkscape:connector-curvature="0"
       id="path1482"
       d="m 32.630103,257.77459 c 0,0 -3.006949,0 -4.144712,-2.09564 0,0 0.162537,3.06285 -2.275528,3.86885 0,0 3.657098,-0.32241 4.794864,2.01503 0,0 -0.731422,-2.17622 1.625376,-3.78824 z"
       style="fill:#000000;fill-opacity:0.09803922;stroke:none;stroke-width:1.05833352;stroke-linecap:round;stroke-linejoin:round;stroke-miterlimit:4;stroke-dasharray:none;stroke-opacity:1" />
    <path
       style="fill:#000000;fill-opacity:0.09803922;stroke:none;stroke-width:1.05833352;stroke-linecap:round;stroke-linejoin:round;stroke-miterlimit:4;stroke-dasharray:none;stroke-opacity:1"
       d="m 21.089922,243.50816 c 0,0 2.27553,1.69264 1.46284,4.03008 0,0 0.731421,-1.69264 3.250756,-2.90165 0,0 -2.27553,0.7254 -4.713596,-1.12843 z"
       id="path1484"
       inkscape:connector-curvature="0" />
    <path
       inkscape:connector-curvature="0"
       id="path1506"
       d="m 25.887154,282.63453 v -7.01372"
       style="fill:none;fill-opacity:0.09803922;stroke:#714e1f;stroke-width:0.52916676;stroke-linecap:round;stroke-linejoin:round;stroke-miterlimit:4;stroke-dasharray:none;stroke-opacity:1" />
    <path
       style="fill:#000000;fill-opacity:0.09803922;stroke:none;stroke-width:1.05833352;stroke-linecap:round;stroke-linejoin:round;stroke-miterlimit:4;stroke-dasharray:none;stroke-opacity:1"
       d="m 16.327913,272.87045 c 0,0 3.919349,1.54343 8.933812,0.57165 5.014463,-0.9718 5.76375,-5.43059 5.76375,-5.43059 0,0 6.299412,5.21795 11.469864,-0.17149 4.893277,-5.10053 0.05762,-13.03338 0.05762,-13.03338 0,0 8.995096,6.80104 2.190228,14.51965 -5.129664,5.81845 -12.161516,2.2294 -12.161516,2.2294 0,0 -3.234971,3.60609 -7.608149,4.23012 -4.440376,0.63361 -8.645625,-2.91536 -8.645625,-2.91536 z"
       id="path1486"
       inkscape:connector-curvature="0"
       sodipodi:nodetypes="cscscscsc" />
    <path
       style="fill:#000000;fill-opacity:0.09803922;stroke:none;stroke-width:1.05833352;stroke-linecap:round;stroke-linejoin:round;stroke-miterlimit:4;stroke-dasharray:none;stroke-opacity:1"
       d="m 3.7629372,269.21194 c 0,0 6.1672134,3.02971 10.3747488,-0.45731 0,0 0.172915,1.48627 1.095113,2.62955 0,0 -6.3401241,2.45805 -11.4698618,-2.17224 z"
       id="path1490"
       inkscape:connector-curvature="0" />
    <path
       sodipodi:nodetypes="ccccccccccccccccc"
       inkscape:connector-curvature="0"
       id="path1488"
       d="m 24.787446,234.02926 c -3.638202,9.8e-4 -6.845788,2.4499 -7.894951,6.02623 -0.426059,-0.0699 -0.856595,-0.10692 -1.28801,-0.11078 -4.780165,-10e-5 -8.6553171,3.99083 -8.6553375,8.91393 0.00318,1.49695 0.3723477,2.96896 1.0734476,4.28025 -4.4054457,1.09374 -7.4893644,4.95174 -7.49342835,9.37435 -1.2129e-4,5.34824 4.45701195,9.68394 9.95526825,9.68404 1.466494,-0.004 2.91406,-0.32234 4.239207,-0.93339 2.212555,2.84319 5.555112,4.49784 9.088856,4.4992 3.404108,-0.002 6.637497,-1.53839 8.851708,-4.20641 1.387609,0.68406 2.920715,1.0423 4.476354,1.04597 5.498253,-9e-5 9.955386,-4.33578 9.95527,-9.68402 -0.0052,-3.69514 -2.1718,-7.06528 -5.58494,-8.68747 0.730502,-1.37074 1.114384,-2.91285 1.115484,-4.48106 -6.9e-5,-5.10214 -3.966231,-9.23814 -8.858609,-9.23797 -0.319808,0.004 -0.639198,0.0254 -0.956754,0.065 -0.868773,-3.83068 -4.192361,-6.54305 -8.023565,-6.54797 z"
       style="fill:none;fill-opacity:1;stroke:#1f7120;stroke-width:1.05833352;stroke-linecap:round;stroke-linejoin:round;stroke-miterlimit:4;stroke-dasharray:none;stroke-opacity:1" />
    <path
       style="fill:none;fill-opacity:0.09803922;stroke:#714e1f;stroke-width:0.52916676;stroke-linecap:round;stroke-linejoin:round;stroke-miterlimit:4;stroke-dasharray:none;stroke-opacity:1"
       d="m 22.494306,290.73416 v -4.56373"
       id="path1508"
       inkscape:connector-curvature="0" />
    <path
       style="fill:none;fill-opacity:0.09803922;stroke:#714e1f;stroke-width:0.52916676;stroke-linecap:round;stroke-linejoin:round;stroke-miterlimit:4;stroke-dasharray:none;stroke-opacity:1"
       d="m 23.84327,286.97252 c 0,0 0.20439,-1.01355 0.817554,-1.29735 0.613164,-0.28379 0.817554,-1.33788 0.817554,-1.33788 0,0 0.16351,-1.41896 -0.940188,-2.02708 -1.103696,-0.60813 -0.817552,-2.59468 -0.817552,-2.59468"
       id="path1510"
       inkscape:connector-curvature="0" />
    <path
       style="fill:none;fill-opacity:0.09803922;stroke:#714e1f;stroke-width:0.52916676;stroke-linecap:round;stroke-linejoin:round;stroke-miterlimit:4;stroke-dasharray:none;stroke-opacity:1"
       d="m 22.535187,286.44546 c 0,0 -0.08175,-1.13516 -0.817554,-1.58112 -0.735798,-0.44595 -0.654043,-1.37842 -0.654043,-1.37842 0,0 0.16351,-1.29734 1.185454,-1.54059"
       id="path1512"
       inkscape:connector-curvature="0" />
    <path
       style="fill:none;fill-opacity:0.09803922;stroke:#714e1f;stroke-width:0.52916676;stroke-linecap:round;stroke-linejoin:round;stroke-miterlimit:4;stroke-dasharray:none;stroke-opacity:1"
       d="m 23.434494,282.96764 c 0,0 0.817553,0.24325 0.776676,0.89192 -0.04087,0.64868 -0.817554,0.89193 -0.817554,0.89193 0,0 -1.06282,-0.0697 -1.021941,-0.973 0.04086,-0.29588 0.152267,-0.42037 0.152267,-0.42037"
       id="path1514"
       inkscape:connector-curvature="0"
       sodipodi:nodetypes="ccccc" />
  </g>
</svg>
