<?xml version="1.0" encoding="UTF-8" standalone="no"?>
<!-- Created with Inkscape (http://www.inkscape.org/) -->

<svg
   xmlns:dc="http://purl.org/dc/elements/1.1/"
   xmlns:cc="http://creativecommons.org/ns#"
   xmlns:rdf="http://www.w3.org/1999/02/22-rdf-syntax-ns#"
   xmlns:svg="http://www.w3.org/2000/svg"
   xmlns="http://www.w3.org/2000/svg"
   xmlns:sodipodi="http://sodipodi.sourceforge.net/DTD/sodipodi-0.dtd"
   xmlns:inkscape="http://www.inkscape.org/namespaces/inkscape"
   width="90"
   height="120"
   viewBox="0 0 23.8125 31.750001"
   version="1.1"
   id="svg8"
   inkscape:version="0.92.5 (2060ec1f9f, 2020-04-08)"
   sodipodi:docname="wall1.svg"
   inkscape:export-filename="/home/victor/Projects/sokoadventure-2/data/img/sprite/wall1.png"
   inkscape:export-xdpi="96"
   inkscape:export-ydpi="96">
  <defs
     id="defs2" />
  <sodipodi:namedview
     id="base"
     pagecolor="#ffffff"
     bordercolor="#666666"
     borderopacity="1.0"
     inkscape:pageopacity="0.0"
     inkscape:pageshadow="2"
     inkscape:zoom="1"
     inkscape:cx="78.269722"
     inkscape:cy="36.791297"
     inkscape:document-units="px"
     inkscape:current-layer="layer1"
     showgrid="false"
     units="px"
     inkscape:pagecheckerboard="true"
     inkscape:showpageshadow="false"
     inkscape:window-width="1920"
     inkscape:window-height="1015"
     inkscape:window-x="0"
     inkscape:window-y="0"
     inkscape:window-maximized="1"
     inkscape:snap-global="false" />
  <metadata
     id="metadata5">
    <rdf:RDF>
      <cc:Work
         rdf:about="">
        <dc:format>image/svg+xml</dc:format>
        <dc:type
           rdf:resource="http://purl.org/dc/dcmitype/StillImage" />
        <dc:title></dc:title>
      </cc:Work>
    </rdf:RDF>
  </metadata>
  <g
     inkscape:label="Layer 1"
     inkscape:groupmode="layer"
     id="layer1"
     transform="translate(0,-265.24999)">
    <path
       style="fill:#b0803f;fill-opacity:1;stroke:none;stroke-width:0.52916706;stroke-linecap:round;stroke-linejoin:round;stroke-miterlimit:4;stroke-dasharray:none;stroke-opacity:1"
       d="m 11.934807,284.02396 -2.2300236,0.0401 v 9.13147 c 0,0 -1.3261904,0.24935 -2.1064317,1.52383 0,0 1.2202828,-0.5828 2.2510424,-0.23736 0,0 -0.7660192,0.23721 -0.969304,1.59071 0,0 1.090573,-0.60778 2.0214209,-0.68414 0,0 0.248604,0.70318 1.033296,1.34681 0.784693,-0.64363 1.033295,-1.34681 1.033295,-1.34681 0.930849,0.0764 2.021421,0.68414 2.021421,0.68414 -0.203282,-1.3535 -0.969302,-1.59071 -0.969302,-1.59071 1.030759,-0.34544 2.251042,0.23736 2.251042,0.23736 -0.780243,-1.27448 -2.10643,-1.52383 -2.10643,-1.52383 v -9.13146 z"
       id="path812"
       inkscape:connector-curvature="0" />
    <path
       style="fill:#000000;fill-opacity:0.09803922;stroke:none;stroke-width:0.52916706;stroke-linecap:round;stroke-linejoin:round;stroke-miterlimit:4;stroke-dasharray:none;stroke-opacity:1"
       d="m 13.120795,286.36433 -0.02881,6.60242 c 0,0 0.547556,0.0858 1.066294,0.31441 l 0.02883,-7.43132 z"
       id="path1492"
       inkscape:connector-curvature="0" />
    <path
       style="fill:#000000;fill-opacity:0.09803922;stroke:none;stroke-width:0.52916706;stroke-linecap:round;stroke-linejoin:round;stroke-miterlimit:4;stroke-dasharray:none;stroke-opacity:1"
       d="m 11.76545,296.65627 c 0,0 0.43018,-0.84607 0.619751,-1.87291 0,0 0.59788,-0.14462 1.152011,0.0795 0,0 -0.123952,-0.5568 -0.335395,-0.90392 0,0 1.611355,-0.26754 2.683162,0.3905 l -1.51657,0.13017 0.503093,1.43901 -1.88113,-0.53511 z"
       id="path1502"
       inkscape:connector-curvature="0"
       sodipodi:nodetypes="ccccccccc" />
    <path
       inkscape:connector-curvature="0"
       id="path1500"
       d="m 11.934807,284.02396 -2.2300236,0.0401 v 9.13147 c 0,0 -1.3261904,0.24935 -2.1064317,1.52383 0,0 1.2202828,-0.5828 2.2510424,-0.23736 0,0 -0.7660192,0.23721 -0.969304,1.59071 0,0 1.090573,-0.60778 2.0214209,-0.68414 0,0 0.248604,0.70318 1.033296,1.34681 0.784693,-0.64363 1.033295,-1.34681 1.033295,-1.34681 0.930849,0.0764 2.021421,0.68414 2.021421,0.68414 -0.203282,-1.3535 -0.969302,-1.59071 -0.969302,-1.59071 1.030759,-0.34544 2.251042,0.23736 2.251042,0.23736 -0.780243,-1.27448 -2.10643,-1.52383 -2.10643,-1.52383 v -9.13146 z"
       style="fill:none;fill-opacity:1;stroke:#714e1f;stroke-width:0.52916706;stroke-linecap:round;stroke-linejoin:round;stroke-miterlimit:4;stroke-dasharray:none;stroke-opacity:1" />
    <path
       style="fill:none;fill-opacity:0.09803922;stroke:#714e1f;stroke-width:0.26458353;stroke-linecap:round;stroke-linejoin:round;stroke-miterlimit:4;stroke-dasharray:none;stroke-opacity:1"
       d="m 11.0019,289.06724 v -3.50686"
       id="path1504"
       inkscape:connector-curvature="0" />
    <path
       style="fill:#3fb03f;fill-opacity:1;stroke:none;stroke-width:0.52916706;stroke-linecap:round;stroke-linejoin:round;stroke-miterlimit:4;stroke-dasharray:none;stroke-opacity:1"
       d="m 12.393737,265.51463 c -1.819103,4.9e-4 -3.4228983,1.22496 -3.9474805,3.01312 -0.2130296,-0.035 -0.4282978,-0.0535 -0.6440056,-0.0554 -2.3900852,-5e-5 -4.3276633,1.99542 -4.3276736,4.45697 0.00159,0.74847 0.1861741,1.48447 0.5367245,2.14011 -2.2027253,0.54688 -3.74468633,2.47588 -3.74671831,4.68718 -6.064e-5,2.67412 2.22850841,4.84197 4.97763961,4.84202 0.7332478,-0.002 1.4570316,-0.16117 2.1196059,-0.4667 1.1062786,1.4216 2.777559,2.24892 4.544433,2.24961 1.702055,-10e-4 3.318752,-0.7692 4.425858,-2.10321 0.693806,0.34202 1.46036,0.52116 2.23818,0.52299 2.749129,-4e-5 4.977698,-2.16789 4.977641,-4.84201 -0.0026,-1.84757 -1.085902,-3.53264 -2.792474,-4.34373 0.365252,-0.68538 0.557194,-1.45643 0.557742,-2.24054 -3.4e-5,-2.55106 -1.983116,-4.61907 -4.429308,-4.61898 -0.159904,0.002 -0.3196,0.0127 -0.478378,0.0325 -0.434386,-1.91535 -2.096182,-3.27154 -4.011786,-3.27399 z"
       id="path1467"
       inkscape:connector-curvature="0"
       sodipodi:nodetypes="ccccccccccccccccc" />
    <path
       style="fill:#000000;fill-opacity:0.09803922;stroke:none;stroke-width:0.52916706;stroke-linecap:round;stroke-linejoin:round;stroke-miterlimit:4;stroke-dasharray:none;stroke-opacity:1"
       d="m 7.3348484,276.70218 c 0,0 1.5034761,0 2.0723587,-1.04781 0,0 -0.081269,1.53141 1.1377659,1.93443 0,0 -1.8285517,-0.16121 -2.3974342,1.00751 0,0 0.3657113,-1.08812 -0.8126904,-1.89413 z"
       id="path1480"
       inkscape:connector-curvature="0" />
    <path
       inkscape:connector-curvature="0"
       id="path1482"
       d="m 16.315069,277.38729 c 0,0 -1.503476,0 -2.072358,-1.04781 0,0 0.08127,1.53142 -1.137765,1.93442 0,0 1.828551,-0.1612 2.397435,1.00751 0,0 -0.365713,-1.0881 0.812688,-1.89412 z"
       style="fill:#000000;fill-opacity:0.09803922;stroke:none;stroke-width:0.52916706;stroke-linecap:round;stroke-linejoin:round;stroke-miterlimit:4;stroke-dasharray:none;stroke-opacity:1" />
    <path
       style="fill:#000000;fill-opacity:0.09803922;stroke:none;stroke-width:0.52916706;stroke-linecap:round;stroke-linejoin:round;stroke-miterlimit:4;stroke-dasharray:none;stroke-opacity:1"
       d="m 10.544973,270.25408 c 0,0 1.137765,0.84633 0.73142,2.01504 0,0 0.365711,-0.84631 1.62538,-1.45082 0,0 -1.137766,0.3627 -2.3568,-0.56422 z"
       id="path1484"
       inkscape:connector-curvature="0" />
    <path
       inkscape:connector-curvature="0"
       id="path1506"
       d="M 12.943592,289.81727 V 286.3104"
       style="fill:none;fill-opacity:0.09803922;stroke:#714e1f;stroke-width:0.26458353;stroke-linecap:round;stroke-linejoin:round;stroke-miterlimit:4;stroke-dasharray:none;stroke-opacity:1" />
    <path
       style="fill:#000000;fill-opacity:0.09803922;stroke:none;stroke-width:0.52916706;stroke-linecap:round;stroke-linejoin:round;stroke-miterlimit:4;stroke-dasharray:none;stroke-opacity:1"
       d="m 8.1639653,284.93523 c 0,0 1.9596777,0.77171 4.4669117,0.28583 2.507233,-0.4859 2.881878,-2.7153 2.881878,-2.7153 0,0 3.149709,2.60898 5.734937,-0.0857 2.446642,-2.55028 0.02881,-6.51669 0.02881,-6.51669 0,0 4.497552,3.40051 1.095116,7.25982 -2.564836,2.90922 -6.080765,1.11469 -6.080765,1.11469 0,0 -1.617488,1.80305 -3.80408,2.11506 -2.22019,0.31681 -4.3228167,-1.45767 -4.3228167,-1.45767 z"
       id="path1486"
       inkscape:connector-curvature="0"
       sodipodi:nodetypes="cscscscsc" />
    <path
       style="fill:#000000;fill-opacity:0.09803922;stroke:none;stroke-width:0.52916706;stroke-linecap:round;stroke-linejoin:round;stroke-miterlimit:4;stroke-dasharray:none;stroke-opacity:1"
       d="m 1.8814705,283.10597 c 0,0 3.08361,1.51485 5.18738,-0.22865 0,0 0.086457,0.74313 0.5475572,1.31477 0,0 -3.1700655,1.22903 -5.7349372,-1.08612 z"
       id="path1490"
       inkscape:connector-curvature="0" />
    <path
       sodipodi:nodetypes="ccccccccccccccccc"
       inkscape:connector-curvature="0"
       id="path1488"
       d="m 12.393737,265.51463 c -1.819103,4.9e-4 -3.4228983,1.22496 -3.9474805,3.01312 -0.2130296,-0.035 -0.4282978,-0.0535 -0.6440056,-0.0554 -2.3900852,-5e-5 -4.3276633,1.99542 -4.3276736,4.45697 0.00159,0.74847 0.1861741,1.48447 0.5367245,2.14011 -2.2027253,0.54688 -3.74468633,2.47588 -3.74671831,4.68718 -6.064e-5,2.67412 2.22850841,4.84197 4.97763961,4.84202 0.7332478,-0.002 1.4570316,-0.16117 2.1196059,-0.4667 1.1062786,1.4216 2.777559,2.24892 4.544433,2.24961 1.702055,-10e-4 3.318752,-0.7692 4.425858,-2.10321 0.693806,0.34202 1.46036,0.52116 2.23818,0.52299 2.749129,-4e-5 4.977698,-2.16789 4.977641,-4.84201 -0.0026,-1.84757 -1.085902,-3.53264 -2.792474,-4.34373 0.365252,-0.68538 0.557194,-1.45643 0.557742,-2.24054 -3.4e-5,-2.55106 -1.983116,-4.61907 -4.429308,-4.61898 -0.159904,0.002 -0.3196,0.0127 -0.478378,0.0325 -0.434386,-1.91535 -2.096182,-3.27154 -4.011786,-3.27399 z"
       style="fill:none;fill-opacity:1;stroke:#1f7120;stroke-width:0.52916706;stroke-linecap:round;stroke-linejoin:round;stroke-miterlimit:4;stroke-dasharray:none;stroke-opacity:1" />
    <path
       style="fill:none;fill-opacity:0.09803922;stroke:#714e1f;stroke-width:0.26458353;stroke-linecap:round;stroke-linejoin:round;stroke-miterlimit:4;stroke-dasharray:none;stroke-opacity:1"
       d="m 11.247165,293.86708 v -2.28187"
       id="path1508"
       inkscape:connector-curvature="0" />
    <path
       style="fill:none;fill-opacity:0.09803922;stroke:#714e1f;stroke-width:0.26458353;stroke-linecap:round;stroke-linejoin:round;stroke-miterlimit:4;stroke-dasharray:none;stroke-opacity:1"
       d="m 11.921647,291.98626 c 0,0 0.102196,-0.50678 0.408778,-0.64868 0.306582,-0.14189 0.408777,-0.66893 0.408777,-0.66893 0,0 0.08175,-0.70948 -0.470094,-1.01354 -0.551848,-0.30407 -0.408775,-1.29735 -0.408775,-1.29735"
       id="path1510"
       inkscape:connector-curvature="0" />
    <path
       style="fill:none;fill-opacity:0.09803922;stroke:#714e1f;stroke-width:0.26458353;stroke-linecap:round;stroke-linejoin:round;stroke-miterlimit:4;stroke-dasharray:none;stroke-opacity:1"
       d="m 11.267606,291.72273 c 0,0 -0.04087,-0.56758 -0.408778,-0.79056 -0.367898,-0.22298 -0.327022,-0.68921 -0.327022,-0.68921 0,0 0.08175,-0.64866 0.592729,-0.7703"
       id="path1512"
       inkscape:connector-curvature="0" />
    <path
       style="fill:none;fill-opacity:0.09803922;stroke:#714e1f;stroke-width:0.26458353;stroke-linecap:round;stroke-linejoin:round;stroke-miterlimit:4;stroke-dasharray:none;stroke-opacity:1"
       d="m 11.71726,289.98382 c 0,0 0.408776,0.12163 0.388338,0.44596 -0.02044,0.32434 -0.408778,0.44596 -0.408778,0.44596 0,0 -0.531411,-0.0348 -0.51097,-0.48649 0.02043,-0.14794 0.07613,-0.21019 0.07613,-0.21019"
       id="path1514"
       inkscape:connector-curvature="0"
       sodipodi:nodetypes="ccccc" />
  </g>
</svg>
