<?xml version="1.0" encoding="UTF-8" standalone="no"?>
<!-- Created with Inkscape (http://www.inkscape.org/) -->

<svg
   xmlns:dc="http://purl.org/dc/elements/1.1/"
   xmlns:cc="http://creativecommons.org/ns#"
   xmlns:rdf="http://www.w3.org/1999/02/22-rdf-syntax-ns#"
   xmlns:svg="http://www.w3.org/2000/svg"
   xmlns="http://www.w3.org/2000/svg"
   xmlns:sodipodi="http://sodipodi.sourceforge.net/DTD/sodipodi-0.dtd"
   xmlns:inkscape="http://www.inkscape.org/namespaces/inkscape"
   width="60"
   height="60"
   viewBox="0 0 15.874999 15.875001"
   version="1.1"
   id="svg8"
   inkscape:version="0.92.5 (2060ec1f9f, 2020-04-08)"
   sodipodi:docname="iconKey.svg"
   inkscape:export-filename="/home/victor/Projects/sokoadventure-2/data/img/ui/iconKey.png"
   inkscape:export-xdpi="96"
   inkscape:export-ydpi="96">
  <defs
     id="defs2" />
  <sodipodi:namedview
     id="base"
     pagecolor="#ffffff"
     bordercolor="#666666"
     borderopacity="1.0"
     inkscape:pageopacity="0.0"
     inkscape:pageshadow="2"
     inkscape:zoom="1"
     inkscape:cx="50.623144"
     inkscape:cy="31.070727"
     inkscape:document-units="px"
     inkscape:current-layer="layer1"
     showgrid="false"
     units="px"
     inkscape:pagecheckerboard="true"
     inkscape:showpageshadow="false"
     inkscape:window-width="1920"
     inkscape:window-height="1015"
     inkscape:window-x="0"
     inkscape:window-y="0"
     inkscape:window-maximized="1"
     inkscape:snap-global="false" />
  <metadata
     id="metadata5">
    <rdf:RDF>
      <cc:Work
         rdf:about="">
        <dc:format>image/svg+xml</dc:format>
        <dc:type
           rdf:resource="http://purl.org/dc/dcmitype/StillImage" />
        <dc:title></dc:title>
      </cc:Work>
    </rdf:RDF>
  </metadata>
  <g
     inkscape:label="Layer 1"
     inkscape:groupmode="layer"
     id="layer1"
     transform="translate(0,-281.12499)">
    <path
       style="fill:#ffffff;fill-opacity:1;stroke:#000000;stroke-width:0.52916712;stroke-linecap:butt;stroke-linejoin:round;stroke-miterlimit:4;stroke-dasharray:none;stroke-opacity:1;paint-order:normal"
       d="m 3.7108966,281.38953 a 3.4463132,3.4463172 0 0 0 -3.44631303,3.44632 3.4463132,3.4463172 0 0 0 3.44631303,3.44632 3.4463132,3.4463172 0 0 0 1.4244492,-0.31293 l 6.7366672,8.76616 3.738418,-2.91368 -1.346724,-1.72316 -2.457988,1.93043 -5.4303305,-7.01049 a 3.4463132,3.4463172 0 0 0 0.7818211,-2.18265 3.4463132,3.4463172 0 0 0 -3.446313,-3.44632 z m 0,1.8207 a 1.6256194,1.6256212 0 0 1 1.6256197,1.62562 1.6256194,1.6256212 0 0 1 -1.6256197,1.62562 1.6256194,1.6256212 0 0 1 -1.6256193,-1.62562 1.6256194,1.6256212 0 0 1 1.6256193,-1.62562 z"
       id="path835"
       inkscape:connector-curvature="0" />
  </g>
</svg>
