<?xml version="1.0" encoding="UTF-8" standalone="no"?>
<!-- Created with Inkscape (http://www.inkscape.org/) -->

<svg
   xmlns:dc="http://purl.org/dc/elements/1.1/"
   xmlns:cc="http://creativecommons.org/ns#"
   xmlns:rdf="http://www.w3.org/1999/02/22-rdf-syntax-ns#"
   xmlns:svg="http://www.w3.org/2000/svg"
   xmlns="http://www.w3.org/2000/svg"
   xmlns:sodipodi="http://sodipodi.sourceforge.net/DTD/sodipodi-0.dtd"
   xmlns:inkscape="http://www.inkscape.org/namespaces/inkscape"
   width="120"
   height="120"
   viewBox="0 0 31.749998 31.750001"
   version="1.1"
   id="svg8"
   inkscape:version="0.92.5 (2060ec1f9f, 2020-04-08)"
   sodipodi:docname="iconKey.svg"
   inkscape:export-filename="/home/victor/Projects/sokoadventure-2/data/img/ui/iconKey.png"
   inkscape:export-xdpi="96"
   inkscape:export-ydpi="96">
  <defs
     id="defs2" />
  <sodipodi:namedview
     id="base"
     pagecolor="#ffffff"
     bordercolor="#666666"
     borderopacity="1.0"
     inkscape:pageopacity="0.0"
     inkscape:pageshadow="2"
     inkscape:zoom="1"
     inkscape:cx="50.623144"
     inkscape:cy="31.070727"
     inkscape:document-units="px"
     inkscape:current-layer="layer1"
     showgrid="false"
     units="px"
     inkscape:pagecheckerboard="true"
     inkscape:showpageshadow="false"
     inkscape:window-width="1920"
     inkscape:window-height="1015"
     inkscape:window-x="0"
     inkscape:window-y="0"
     inkscape:window-maximized="1"
     inkscape:snap-global="false" />
  <metadata
     id="metadata5">
    <rdf:RDF>
      <cc:Work
         rdf:about="">
        <dc:format>image/svg+xml</dc:format>
        <dc:type
           rdf:resource="http://purl.org/dc/dcmitype/StillImage" />
        <dc:title />
      </cc:Work>
    </rdf:RDF>
  </metadata>
  <g
     inkscape:label="Layer 1"
     inkscape:groupmode="layer"
     id="layer1"
     transform="translate(0,-265.24999)">
    <path
       style="fill:#ffffff;fill-opacity:1;stroke:#000000;stroke-width:1.05833328;stroke-linecap:butt;stroke-linejoin:round;stroke-miterlimit:4;stroke-dasharray:none;stroke-opacity:1;paint-order:normal"
       d="m 7.4217913,265.77915 a 6.8926249,6.8926236 0 0 0 -6.89262464,6.89263 6.8926249,6.8926236 0 0 0 6.89262464,6.89262 6.8926249,6.8926236 0 0 0 2.8488977,-0.62586 l 13.473333,17.5323 7.476832,-5.82734 -2.693448,-3.44632 -4.915973,3.86085 -10.860659,-14.02096 a 6.8926249,6.8926236 0 0 0 1.563642,-4.36529 6.8926249,6.8926236 0 0 0 -6.8926247,-6.89263 z m 0,3.64139 a 3.251238,3.2512374 0 0 1 3.2512387,3.25124 3.251238,3.2512374 0 0 1 -3.2512387,3.25123 3.251238,3.2512374 0 0 1 -3.251238,-3.25123 3.251238,3.2512374 0 0 1 3.251238,-3.25124 z"
       id="path835"
       inkscape:connector-curvature="0" />
  </g>
</svg>
